<svg height="82" viewBox="0 0 112.12 81.11" width="113" xmlns="http://www.w3.org/2000/svg"><g fill="#fcc817"><path d="m59.89 3.27a6.8 6.8 0 0 1 .94-.19c2.38-.32 5 .69 7.12 2 5.13 3.06 8.55 7.85 8.89 12.47a20.85 20.85 0 0 1 -13.18-4.79c-3.39-3-5-7-4.3-10.44"/><path d="m93.21 67a6.57 6.57 0 0 1 .91-.34c2.3-.67 5-.07 7.33.86 5.54 2.25 9.63 6.46 10.67 11a20.91 20.91 0 0 1 -13.75-2.74c-3.8-2.48-5.37-5.27-5.16-8.78"/><path d="m61.29 4.7c-5.12 1-9.4 5.58-11.42 10.16s-2.33 9.52-2.61 14.34c0 .35 0 .76.27 1a1.19 1.19 0 0 0 .86.1c7.79-1 14.46-8.54 14-15.75-.22-3.27-1.67-6.55-1-9.74"/><path d="m37.36 75.47c-5.74-7.31-11.68-14.87-15.36-23.61-2.95-7-5.59-17.66-1.37-29a36.52 36.52 0 0 1 24.48-22.03c5.5-1.4 12.89-1.36 17.26 2.91l-2.8 2.85c-2.57-2.59-7.9-3.3-13.47-1.89a32.84 32.84 0 0 0 -21.75 19.58c-3.76 10.08-1.35 19.72 1.31 26.02 3.49 8.25 9.27 15.6 14.85 22.7z"/></g><path d="m14.55 53.49c4.13-2.87 6.82-5.78 11.84-5.44 4.08.27 21.47 7 30.86 20.22.75 1.11-14.78 11.9-20.85 12.57a31.43 31.43 0 0 1 -10.86-.43c-6.69-1.64-7.11-.24-13.67-2.33-6.72-2.08-18.81-5.08-6.71-16.48a82.26 82.26 0 0 1 9.39-8.11z" fill="#23286b"/></svg>