<svg xmlns="http://www.w3.org/2000/svg" viewBox="0 0 1500 1500" width="1500" height="1500"><g transform="translate(-174.0 1467.0) rotate(-169.40284246209134 949.5 -692.5) scale(2.37375 -2.375235808609158)"><svg width="800" height="583.1" viewBox="0 0 800 583.1"><g fill="#00ACDC"><path d="M210.323 468.9c-.9-1.3-1.7-2.6-2.3-4.1-.6-1.4-1.2-2.8-1.6-4.3-.5-1.4-.8-2.9-1.1-4.3-.3-1.5-.5-3-.6-4.5-.1-1.1.8-2.1 2-2.2.6 0 1.2.2 1.6.7 1.1 1.2 2 2.6 2.7 4.1.7 1.4 1.3 2.9 1.7 4.4.5 1.5.8 3 1 4.5.3 1.6.4 3.1.3 4.7-.1 1.1-1 1.9-2.1 1.9-.7-.1-1.2-.4-1.6-.9zm-76.287-111.533c-.9-1.3-1.7-2.6-2.3-4.1-.6-1.4-1.2-2.8-1.6-4.3-.5-1.4-.8-2.9-1.1-4.3-.3-1.5-.5-3-.6-4.5-.1-1.1.8-2.1 2-2.2.6 0 1.2.2 1.6.7 1.1 1.2 2 2.6 2.7 4.1.7 1.4 1.3 2.9 1.7 4.4.5 1.5.8 3 1 4.5.3 1.6.4 3.1.3 4.7-.1 1.1-1 1.9-2.1 1.9-.699-.1-1.199-.4-1.6-.9zM260.023 521.9c-1.8-.6-3.6-1.4-5.3-2.1-1.8-.7-3.5-1.5-5.3-2.3s-3.5-1.7-5.2-2.6-3.4-2-5.1-3c-.8-.5-1.6-1.1-2.4-1.7s-1.6-1.1-2.4-1.8c-1.6-1.2-3.1-2.5-4.5-3.9-2.9-2.7-5.4-5.9-7.5-9.3-.5-.9-.2-2.2.7-2.7.7-.4 1.7-.3 2.3.3 2.7 2.5 5.5 5 8.4 7.2 1.5 1.1 2.9 2.3 4.4 3.3s3 2.1 4.6 3.1c3.1 2.1 6.3 4 9.5 5.9 1.6 1 3.3 2 4.9 3s3.3 2.1 4.8 3.3c.8.6 1 1.8.4 2.7-.6.5-1.4.8-2.3.6zm163.7 59.3c-6.2 1.6-12.6 2.2-19 1.8-3.2-.2-6.3-.6-9.5-1.1-3.1-.6-6.2-1.3-9.2-2l-8.9-2.4c-1.5-.4-2.9-.7-4.3-1.1-1.3-.3-2.7-.5-4.1-.6h-2c-.7 0-1.4.1-2.2.2-1.5.1-2.9.3-4.4.5-3 .4-6 1-9.1 1.4-1.1.1-2.1-.6-2.2-1.7-.1-.9.4-1.8 1.3-2.1 2.9-1 5.9-1.9 9-2.7 1.5-.4 3.1-.7 4.7-1 .8-.1 1.6-.3 2.4-.4.9-.1 1.7-.2 2.6-.2 1.7 0 3.4.2 5.1.5 1.6.3 3.2.6 4.7 1 3.1.7 6 1.5 9 2.3s5.9 1.5 8.8 2.1 5.9 1.1 8.8 1.5c5.9.8 11.9.9 17.8.4 1-.1 2 .7 2 1.7.2.8-.4 1.6-1.3 1.9zm130.7-31.3c-2.2 2.1-4.5 4-7 5.7-2.5 1.8-5.1 3.3-7.9 4.7s-5.7 2.5-8.7 3.3-6.1 1.3-9.2 1.3c-1.1 0-2-.9-2-2 0-.8.5-1.5 1.3-1.8 2.7-1 5.4-1.9 8-3s5.2-2.2 7.7-3.5 5.1-2.5 7.7-3.9 5.2-2.7 8-3.8c1-.4 2.1 0 2.5 1 .3.6.2 1.4-.4 2zm117.2-68.7c.1.7 0 1.4-.2 2.1-.2.6-.5 1.1-.8 1.6-.4.5-.8.9-1.3 1.3-.6.4-1.2.7-1.9.8-1.4.3-2.8-.7-3.1-2.1v-.3c-.1-.7 0-1.4.2-2s.5-1.1.8-1.6c.4-.5.8-.9 1.3-1.2.6-.4 1.2-.7 1.9-.8h.1c1.4-.3 2.7.6 3 2zm4.9-62.5c1.9 3.2 3.6 6.5 5 9.9 1.5 3.5 2.5 7.2 3.1 11 .3 1.9.4 3.9.4 5.8 0 1-.1 2-.1 2.9-.1 1-.2 1.9-.4 2.8-.6 3.8-1.7 7.4-3.3 10.9-.5 1-1.7 1.4-2.6.9-.8-.4-1.2-1.2-1.1-2.1.5-3.5.9-6.9 1.1-10.4l.1-2.6v-2.5c-.1-1.7-.2-3.3-.5-5-.5-3.4-1.3-6.7-2.2-10-.9-3.4-2-6.8-2.9-10.3-.3-1 .4-2.1 1.4-2.3.8 0 1.6.3 2 1zm3-249.3c-1.2 4-2.5 8.1-3.9 12-1.4 3.8-2.5 7.7-3.3 11.6-.4 1.9-.6 3.8-.6 5.7v1.2s.1.8.2 1.3c.2.9.4 1.8.7 2.7 1.2 3.7 2.8 7.6 4.3 11.4 1.6 3.8 3.1 7.9 4.4 12s2.3 8.4 2.9 12.7c.6 4.4.7 8.8.2 13.2-.5 4.3-1.6 8.6-3.2 12.7-.4 1-1.5 1.5-2.5 1.2-.9-.3-1.5-1.4-1.2-2.3 1-3.9 1.5-7.9 1.7-11.9.1-2 0-4-.2-5.9-.1-2-.4-4-.8-5.9-1.4-7.9-4.3-15.5-7.4-23.2-1.5-3.9-3.2-7.8-4.4-12.1-.3-1.1-.6-2.2-.8-3.4-.1-.6-.2-1.2-.2-1.8v-1.9c.1-2.3.4-4.5 1-6.8 1.1-4.2 2.5-8.3 4.3-12.2 1.7-3.9 3.3-7.6 5.1-11.4v-.1c.5-.9 1.6-1.3 2.5-.9 1.1.3 1.5 1.3 1.2 2.1zm-23.7-85.8c1.1 1.7 2 3.6 2.8 5.4s1.6 3.7 2.3 5.3c.6 1.5 1.6 3.2 2.5 4.9 1 1.8 1.8 3.6 2.6 5.5.4 1.1-.2 2.2-1.2 2.6-.7.2-1.4.1-2-.3-1.6-1.3-3-2.8-4.3-4.5-1.4-1.7-2.6-3.6-3.5-5.6-.8-2-1.4-4-1.9-6.1-.5-2-.7-4.1-.8-6.2 0-1.1.8-2 1.9-2 .6.1 1.2.4 1.6 1zm-179.6-63.4c5-.6 9.9-2.1 15-3.6 2.5-.8 5.1-1.4 7.7-2.1s5.3-1.2 8-1.7c2.8-.4 5.6-.7 8.4-.7s5.7.3 8.5.8c5.5 1.1 10.7 3.1 15.5 6 .9.6 1.3 1.8.7 2.7-.5.8-1.4 1.2-2.3.9-4.8-1.7-9.8-2.9-14.8-3.6-2.5-.3-4.9-.4-7.4-.3s-5 .3-7.5.7-5 .9-7.6 1.4c-2.5.5-5.1 1.1-7.7 1.6s-5.3 1-8 1.4c-2.8.4-5.6.5-8.4.2-1-.1-1.8-1-1.7-2.1-.1-.8.7-1.5 1.6-1.6zM351.123.1c1.5-.2 3-.2 4.5 0 1.4.1 2.9.3 4.3.6s2.8.6 4.1 1c1.4.4 2.8.9 4.1 1.5h.1c1 .5 1.5 1.7 1 2.8-.3.5-.7.9-1.3 1.1-1.5.4-3.1.6-4.7.5-1.5 0-3.1-.2-4.6-.5s-2.9-.7-4.3-1.3c-1.4-.5-2.8-1.2-4.1-2.1-.9-.6-1.2-1.9-.5-2.8.3-.4.8-.7 1.4-.8zm-96.3 58.8c2.7-1.8 5.5-3.4 8-5.1 1.2-.8 2.4-1.7 3.5-2.7.2-.2.5-.4.7-.7l.3-.4.4-.4c.5-.6 1-1.2 1.4-1.8 1.8-2.5 3.5-5.1 5.1-7.7 1.6-2.7 3.1-5.5 4.6-8.3s3.1-5.7 4.7-8.6c1.7-2.9 3.5-5.7 5.5-8.4s4.4-5.3 6.9-7.5c2.6-2.3 5.5-4.2 8.6-5.6 1-.5 2.2 0 2.6.9s.1 2-.7 2.5c-5 3.5-9.3 7.9-12.5 13.1-1.7 2.6-3.3 5.3-4.8 8s-3 5.6-4.5 8.5c-3.1 5.7-6.4 11.5-10.9 16.7-.6.6-1.1 1.3-1.7 1.9l-.4.5c-.1.2-.4.4-.5.5-.4.3-.7.6-1.1.9-1.4 1-2.9 2-4.4 2.8-3 1.6-5.9 2.9-9 4.1-1 .4-2.1-.1-2.5-1.1-.4-.7-.1-1.7.7-2.1zM115.335 239.477c2.441-2.138 5.007-4.091 7.263-6.104 1.085-.95 2.157-2 3.116-3.135.172-.224.443-.462.602-.786l.245-.436.344-.449c.417-.66.834-1.321 1.152-1.968 1.457-2.714 2.802-5.515 4.047-8.302 1.233-2.886 2.353-5.859 3.473-8.831s2.327-6.057 3.533-9.142c1.305-3.098 2.723-6.109 4.352-9.048s3.668-5.831 5.858-8.339c2.276-2.621 4.902-4.884 7.792-6.678.926-.627 2.181-.288 2.695.552s.361 1.97-.366 2.57c-4.498 4.125-8.185 9.05-10.676 14.625-1.345 2.8-2.577 5.687-3.711 8.56-1.133 2.873-2.241 5.945-3.348 9.016-2.327 6.057-4.838 12.239-8.618 17.984-.516.673-.92 1.433-1.436 2.106l-.331.548c-.073.211-.344.449-.43.561-.357.35-.615.687-.973 1.036-1.257 1.175-2.613 2.363-3.995 3.352-2.765 1.979-5.469 3.648-8.385 5.244-.939.528-2.095.176-2.623-.763-.487-.641-.32-1.672.42-2.173z"/><path d="M651.523 300.5c0-18.3 14.1-35 14.3-50.6.2-18.7-13.5-35.6-13.4-50.8.1-19.5 13.8-36.6 13-51.1-1.2-20.7-17.3-33.5-22.6-46.3-6.5-15.8-7.6-35.8-24.6-44.3-12.1-6-32.1 2.6-51.5-1.9-14-3.2-27.3-20.3-45.8-23.6-14.7-2.6-33.1 8.9-51 5.9-19.7-3.3-34.4-20.6-49.4-23.3-20.7-3.7-39.1 7.7-53.5 6.9-19.7-1.2-38.1-12.3-53.7-3.7-12.6 6.9-16.9 29.1-31.9 45.3-10.1 11-31.8 14.9-44.8 31.2-9.8 12.3-9.8 35.2-21.9 51-9.9 12.8-31.6 18-43.4 33.4-9.1 11.9-9.9 31.9-18.7 46.7-21.1 33.4-19.1 94.3-1.4 125.1 10.2 15 10.5 36.5 20.1 48.9 11.8 15.4 33.5 20.5 43.4 33.4 12.1 15.8 12.1 38.7 21.9 51 13 16.3 34.6 20.2 44.8 31.2 15 16.3 19.3 38.4 31.9 45.3 15.6 8.5 34-2.6 53.7-3.7 14.5-.9 32.8 10.5 53.5 6.8 14.9-2.7 29.6-20 49.3-23.3 17.1-2.9 34.9 8.9 49 6.7 17.7-2.7 31.1-19.3 44.7-21.6 18.9-3.3 37.4 7.4 49.6 3.4 18.6-6.2 21.9-24.6 29.1-38.1 6-11.3 21.9-22.6 23.2-43.3.8-13.6-13-30-13.1-49.1-.1-14.4 13.6-30.7 13.4-48.8-.1-15-14.2-31.1-14.2-48.7z"/></g><path d="M626.023 168.2h.3c4.3-.2 7.5-5 7.2-10.8s-4-10.2-8.3-10c-2.4.2-4.5 1.6-5.6 3.7-1.2 2.2-1.8 4.6-1.6 7.1.4 5.7 3.8 10 8 10zm-2.1-14.6c.2-.4.8-1.3 1.6-1.3h.1c1.3 0 2.9 2.3 3.1 5.4s-1.2 5.6-2.6 5.7c-1.3.1-3-2.3-3.2-5.4-.1-1.6.3-3.1 1-4.4z" fill="#00acdc"/><path d="M446.823 42c-1.3-2-3.6-3.1-6-3.1-4.3.2-7.5 5-7.2 10.8.3 5.7 3.8 10 8 10h.3c4.3-.2 7.5-5 7.2-10.8 0-2.5-.8-4.9-2.3-6.9zm-5.1 12.8c-1.3 0-3-2.3-3.2-5.4s1.2-5.6 2.6-5.7h.1c.8 0 1.5.8 1.7 1.1.8 1.2 1.3 2.7 1.4 4.2.2 3.2-1.2 5.7-2.6 5.8zm-113 98.1c-4.3.2-7.5 5-7.2 10.8.3 5.7 3.8 10 8 10h.3c2.4-.2 4.5-1.6 5.6-3.7 1.2-2.2 1.8-4.6 1.6-7.1-.3-5.8-3.9-10.2-8.3-10zm2.5 14.6c-.2.4-.9 1.3-1.6 1.3-1.4 0-3-2.3-3.2-5.4s1.2-5.6 2.6-5.7h.1c1.3 0 2.9 2.3 3.1 5.4.1 1.6-.2 3.1-1 4.4z" fill="#00ACDC"/><path d="M290.423 383.3c-2.4.2-4.5 1.6-5.6 3.7-1.2 2.2-1.8 4.6-1.6 7.1.3 5.7 3.8 10 8 10h.3c2.4-.2 4.5-1.6 5.6-3.7 1.2-2.2 1.8-4.6 1.6-7.1-.3-5.8-4-10.2-8.3-10zm2.5 14.6c-.2.4-.8 1.3-1.6 1.3-1.3.1-3-2.3-3.2-5.4-.1-1.5.2-3 .9-4.3.2-.4.8-1.3 1.6-1.3h.1c1.3 0 2.9 2.3 3.1 5.4.1 1.5-.2 3-.9 4.3zm41.5 111.9c-4.3.2-7.5 5-7.2 10.8.3 5.7 3.8 10 8 10h.3c4.3-.2 7.5-5 7.2-10.8s-4-10.2-8.3-10zm.8 15.9c-1.3.1-3-2.3-3.2-5.4s1.2-5.6 2.6-5.7h.1c1.3 0 2.9 2.3 3.1 5.4s-1.3 5.7-2.6 5.7z" fill="#00acdc"/><path d="M625.323 445.4c-2.4.2-4.5 1.6-5.6 3.7-1.2 2.2-1.8 4.6-1.6 7.1.3 5.7 3.8 10 8 10h.3c4.3-.2 7.5-5 7.2-10.8s-4-10.2-8.3-10zm.8 15.9c-1.4 0-3-2.3-3.1-5.4-.1-1.5.2-3 .9-4.3.2-.4.8-1.3 1.6-1.3h.1c1.3 0 2.9 2.3 3.1 5.4.1 3-1.3 5.6-2.6 5.6zm-54.8-219.1c-2.4.2-4.5 1.6-5.6 3.7-1.2 2.2-1.8 4.6-1.6 7.1.3 5.7 3.8 10 8 10h.3c4.3-.2 7.5-5 7.2-10.8s-4-10.3-8.3-10zm.8 15.9c-1.3.1-3-2.3-3.2-5.4-.1-1.5.2-3 .9-4.3.2-.4.8-1.3 1.6-1.3h.1c1.3 0 2.9 2.3 3.1 5.4.2 3-1.1 5.5-2.5 5.6z" fill="#00ACDC"/><path d="M649.223 237.1c-1.3-1-2.6-1.9-4-2.7-.9-.5-1.9-1-2.9-1.5 0-1.3-.1-2.5-.2-3.8-.2-1.7-.4-3.3-.8-4.9-.1-.5-.5-.9-1.1-1.1-.8-.2-1.6.3-1.8 1-.4 1.6-.7 3.3-.8 4.9 0 .6-.1 1.1-.1 1.7-.4-.1-.7-.3-1.1-.4-1.5-.6-3.1-1-4.7-1.3-.5-.1-1 .1-1.4.5-.5.6-.4 1.5.2 2.1 1.3 1 2.6 1.9 4 2.7.9.5 1.9 1.1 2.9 1.5 0 1 .1 2 .2 3 .1 1.6.4 3.3.8 4.9.2.8 1 1.3 1.9 1.1.5-.1 1-.6 1.1-1.1.4-1.6.7-3.2.8-4.9v-.9c.4.1.7.3 1.1.4 1.5.6 3.1 1 4.7 1.3.5.1 1.1-.1 1.4-.5.6-.6.5-1.5-.2-2z" fill="#00acdc"/><path d="m608.923 308.1 10.6 4.9c1.2.6 2.7 0 3.2-1.2.3-.6.3-1.2.1-1.8l-5.3-15.6c-.4-1.3-1.8-2-3.1-1.5-.6.2-1.1.6-1.4 1.2l-5.3 10.6c-.6 1.3-.1 2.7 1.2 3.4-.1 0 0 0 0 0z" fill="#00ACDC"/><path d="M518.123 101c-.4-1.3-1.8-2-3.1-1.5-.6.2-1.1.6-1.4 1.2l-5.3 10.6c-.6 1.2-.1 2.7 1.1 3.3l10.6 4.9c.3.2.7.2 1 .2 1.3 0 2.4-1.1 2.5-2.4 0-.3 0-.6-.1-.8zm-230.5 18.8c1.3 0 2.5-1.1 2.5-2.4 0-.3 0-.6-.1-.8l-5.3-15.6c-.4-1.3-1.8-2-3.1-1.5-.6.2-1.1.6-1.4 1.2l-5.3 10.6c-.6 1.2-.1 2.7 1.1 3.3l10.6 4.9c.3.2.7.3 1 .3zm-62.1 261.9c-.3-.9-1.2-1.6-2.2-1.6-1-.1-1.9.5-2.3 1.3l-5.3 10.6c-.6 1.2-.1 2.7 1.1 3.3l10.6 4.9c1.2.6 2.7 0 3.2-1.2.3-.6.3-1.2.1-1.8z" fill="#00acdc"/><path d="M391.023 449.8c1.3 0 2.5-1.1 2.5-2.4 0-.3 0-.6-.1-.8l-5.3-15.6c-.4-1.3-1.8-2-3.1-1.5-.6.2-1.1.6-1.4 1.2l-5.3 10.6c-.6 1.2-.1 2.7 1.1 3.3h.1l10.6 4.9c.1.1.5.2.9.3z" fill="#00ACDC"/><path d="M414.923 499.3c-.4-1.3-1.8-2-3.1-1.5-.6.2-1.1.6-1.4 1.2l-5.3 10.6c-.3.6-.3 1.3-.1 1.9s.7 1.1 1.3 1.4l10.6 4.9c.9.4 1.9.3 2.7-.4.7-.7 1-1.7.7-2.6zm148-14.5c-.4-1.3-1.8-2-3.1-1.5-.6.2-1.1.6-1.4 1.2l-5.3 10.6c-.3.6-.3 1.3-.1 1.9s.7 1.1 1.3 1.4l10.6 4.9c1.2.6 2.7 0 3.3-1.2.3-.6.3-1.2.1-1.8z" fill="#00acdc"/><path d="M585.023 83.6c-.9-.5-1.9-1-2.9-1.5 0-1.3-.1-2.5-.2-3.8-.1-1.6-.4-3.3-.8-4.9-.2-.8-1-1.3-1.8-1.1-.5.1-.9.5-1.1 1.1-.4 1.6-.7 3.2-.8 4.9 0 .6-.1 1.1-.1 1.7l-1.1-.4c-1.5-.6-3.1-1-4.7-1.3-.8-.1-1.6.4-1.7 1.2-.1.5.1 1.1.5 1.4 1.3 1 2.6 1.9 4 2.7.9.6 1.9 1.1 2.9 1.5 0 1 .1 2 .2 3 .1 1.6.4 3.3.8 4.9.2.8 1 1.3 1.8 1.1.5-.1 1-.6 1.1-1.1.4-1.6.7-3.2.8-4.9 0-.3 0-.6.1-.9.4.1.7.3 1.1.4 1.5.6 3.1 1 4.7 1.3.5.1 1.1-.1 1.4-.5.5-.6.4-1.6-.2-2.1-1.2-1-2.5-1.9-4-2.7zm-237.1-23.4c-.9-.5-1.9-1-2.9-1.5 0-1.3-.1-2.5-.2-3.8-.1-1.6-.4-3.3-.8-4.9-.1-.5-.5-.9-1-1.1-.8-.2-1.6.3-1.8 1.1-.4 1.6-.7 3.2-.8 4.9 0 .6-.1 1.1-.1 1.7l-1.1-.4c-1.5-.6-3.1-1-4.6-1.3-.8-.1-1.6.4-1.7 1.2-.1.5.1 1.1.5 1.4 1.3 1 2.6 1.9 4 2.7.9.6 1.9 1.1 2.9 1.5 0 1 .1 2 .2 3 .1 1.6.4 3.3.8 4.9.2.8 1 1.3 1.8 1.1.6-.1 1-.6 1.1-1.1.4-1.6.7-3.2.8-4.9v-.9l1.1.4c1.5.6 3.1 1 4.7 1.3.5.1 1.1-.1 1.4-.5.5-.6.4-1.6-.2-2.1-1.3-1-2.7-1.9-4.1-2.7z" fill="#00ACDC"/><path d="M249.623 209.8c-.9-.5-1.9-1.1-2.9-1.5 0-1.3-.1-2.5-.2-3.8-.2-1.7-.4-3.3-.8-4.9-.1-.5-.5-.9-1.1-1.1-.8-.2-1.6.3-1.8 1-.4 1.6-.7 3.3-.8 4.9 0 .6-.1 1.1-.1 1.7l-1.1-.4c-1.5-.6-3.1-1-4.7-1.3-.8-.1-1.5.4-1.7 1.2-.1.5.1 1 .5 1.3 1.3 1 2.6 1.9 4 2.7.9.6 1.9 1.1 2.9 1.5 0 1 .1 2 .2 3 .1 1.7.4 3.3.8 4.9.2.8 1 1.3 1.9 1.1.5-.1 1-.6 1.1-1.1.4-1.6.6-3.3.8-4.9v-.9c.4.1.7.3 1.1.4 1.5.6 3.1 1 4.7 1.3.5.1 1.1-.1 1.4-.5.5-.6.4-1.6-.2-2.1-1.3-.8-2.6-1.7-4-2.5z" fill="#00acdc"/><path d="M301.523 462.3c-.9-.5-1.9-1-2.9-1.5 0-1.3-.1-2.5-.2-3.8-.2-1.6-.4-3.3-.8-4.9-.2-.8-1-1.3-1.8-1.1-.5.1-.9.5-1.1 1.1-.4 1.6-.7 3.2-.8 4.9-.1.6-.1 1.1-.1 1.7-.4-.1-.7-.3-1.1-.4-1.5-.6-3.1-1-4.7-1.3-.8-.1-1.6.4-1.7 1.2-.1.5.1 1.1.5 1.4 1.3 1 2.6 1.9 4 2.7.9.5 1.9 1.1 2.9 1.5 0 1 .1 2 .2 3 .1 1.6.4 3.3.8 4.9.2.8 1 1.3 1.9 1.1.5-.1 1-.6 1.1-1.1.4-1.6.6-3.2.8-4.9 0-.3 0-.6.1-.9.4.1.7.3 1.1.4 1.5.6 3.1 1 4.7 1.3.5.1 1.1-.1 1.4-.5.5-.6.4-1.6-.2-2.1-1.4-1-2.8-1.9-4.1-2.7zm180.9 31.5c-.9-.5-1.9-1-2.9-1.5 0-1.3-.1-2.5-.2-3.8-.1-1.6-.4-3.3-.8-4.9-.2-.8-1-1.3-1.8-1.1-.5.1-.9.5-1.1 1.1-.4 1.6-.7 3.2-.8 4.9-.1.6-.1 1.1-.1 1.7-.4-.1-.7-.3-1.1-.4-1.5-.6-3.1-1-4.7-1.3-.8-.1-1.6.4-1.7 1.2-.1.5.1 1.1.5 1.4 1.3 1 2.6 1.9 4 2.7.9.5 1.9 1.1 2.9 1.5 0 1 .1 2 .2 3 .1 1.6.4 3.3.8 4.9.1.5.6 1 1.1 1.1.8.2 1.6-.3 1.8-1.1.4-1.6.7-3.2.8-4.9 0-.3 0-.6.1-.9.4.1.7.3 1.1.4 1.5.6 3.1 1 4.7 1.3.8.2 1.6-.4 1.8-1.2.1-.6-.1-1.1-.5-1.5-1.4-.9-2.7-1.8-4.1-2.6z" fill="#00ACDC"/><path d="M619.423 387.3c.5-.6.4-1.6-.2-2.1-1.3-1-2.6-1.9-4-2.7-.9-.5-1.9-1-2.9-1.5 0-1.3-.1-2.5-.2-3.8-.1-1.6-.4-3.3-.8-4.9-.1-.5-.5-.9-1.1-1.1-.8-.2-1.6.3-1.8 1-.4 1.6-.7 3.2-.8 4.9-.1.6-.1 1.1-.1 1.7-.4-.1-.7-.3-1.1-.4-1.5-.6-3.1-1-4.7-1.3-.5-.1-1 .1-1.4.5-.5.6-.4 1.5.2 2.1 1.3 1 2.6 1.9 4 2.7.9.5 1.9 1.1 2.9 1.5 0 1 .1 2 .2 3 .1 1.6.4 3.3.8 4.9.2.8 1 1.3 1.8 1.1.5-.1 1-.6 1.1-1.1.4-1.6.7-3.2.8-4.9 0-.3 0-.6.1-.9.4.1.7.3 1.1.4 1.5.6 3.1 1 4.7 1.3.5.2 1 .1 1.4-.4z" fill="#00acdc"/></svg></g><g transform="translate(55.0 222.0) rotate(0.0 548.5 591.5) scale(1.0120243623877503 1.0093047144682934)"><svg width="1083.966" height="1172.094" viewBox="0 0 1083.966 1172.094"><path d="M414.978 179.913h168.098v100.963H414.978z" fill="#04294f"/><path d="M569.017 162.174h60v102.905h-60z" fill="#04294f"/><path d="M349.845 121.478h243.021v276H349.845z" fill="#04294f"/><path d="M972.445 701.953zm-149.726 86.615c-.087 8.385.21 16.641 1.408 24.948-1.132-8.304-1.434-16.574-1.408-24.948zm-45.481-166.283c-8.993-3.934-17.789-5.396-27.568-5.622 9.763.255 18.571 1.743 27.568 5.622zm-28.434 58.609c-6.933 2.987-12.932 6.654-18.514 11.752 5.605-5.047 11.614-8.731 18.514-11.752zm73.915 107.674c1.076-15.589 3.907-29.311 11.191-43.238-7.32 13.926-10.156 27.63-11.191 43.238zM690.455 571.981c2.039-2.177 4.178-4.957 6.429-6.843 11.298-9.47 22.75-15.953 36.738-20.449-14.052 4.408-25.445 10.934-36.738 20.449-2.25 1.895-4.393 4.657-6.429 6.843z" fill="none"/><path d="M886.225 743.695c-1.102 3.541-1.571 6.935-1.64 10.684-.015.795.025 1.719.14 2.631.198 1.571.33 3.079.844 4.701.963 3.039 2.185 6.016 3.501 9.044a46.158 46.158 0 0 0 1.815 3.717c1.738 3.177 3.736 6.567 5.786 9.584.65.956 1.479 2.178 2.145 2.907 9.128 9.987 18.364 16.918 31.011 21.66 18.524-13.456 34.306-29.312 48.74-47.013-4.65.373-9.489 1.024-14.141.64-8.683-.716-18.061-1.721-26.151-4.344-12.075-3.915-22.486-9.67-32.665-16.501-3.316-2.226-4.348-4.754-7.031-7.339-3.823 3.57-8.001 6.688-12.354 9.629zm-62.048 69.387a119.152 119.152 0 0 1-1.351-24.724c.787-15.409 3.816-29.24 11.074-43-5.638-4.622-10.934-9.389-15.747-14.876-.013-.015-.068-.028-.046.001.022.028.117.147.102.149-16.232 1.303-28.148 6.297-38.721 18.905-10.148 12.1-13.075 24.42-13.155 39.88 14.657 13.903 30.005 26.217 47.877 35.318 5.431 2.766 10.173 3.111 15.65 5.123-2.308-5.866-4.639-10.307-5.683-16.776zm6.045 16.719c.009.001.008-.002-.002-.005s-.07-.021-.074-.013.067.017.076.018zm136.851-117.39c-13.862-4.083-25.448-9.333-36.799-18.11-6.618 10.296-13.824 20.051-21.502 29.596 5.81 8.277 12.287 13.462 21.288 18.449 2.966 1.643 8.101 3.632 11.481 4.443 16.283 3.903 30.204 5.201 45.921-.262 1.04-.361 1.276-.651 1.922-.835s-.646.184 0 0-.008.102.116-.086a372.432 372.432 0 0 0 4.085-6.348c5.656-9.075 10.477-17.892 14.77-27.512-9.634 2.391-19.226 3.342-29.048 2.692-4.149-.274-8.572-.949-12.234-2.027zm-233.094-92.407c-14.534 6.36-23.378 13.995-29.434 28.661 4.527 12.078 8.572 24.315 12.175 36.643 8.354-8.332 16.691-15.446 28.4-18.298 16.772-4.086 31.569-1.702 47.979 2.552-4.917-15.845-10.376-31.59-15.825-47.3-9.363-3.651-17.637-5.671-27.953-5.397-4.687.124-10.929 1.208-15.342 3.139zm33.682 119.206c.008.004-.006 0 .017-.025 6.547-7.107 13.568-13.42 21.967-18.068 2.8-1.55 5.432-2.198 8.286-3.001 3.805-1.071 7.348-1.133 11.22-1.321-3.055-6.527-5.61-12.517-8.008-19.528-1.151-3.363-2.467-8.023-3.405-11.674-12.327-6.243-23.662-8.05-37.501-7.429-2.526.113-5.844 1.124-8.424 1.771-.902.227-2.191.642-2.961.969-6.483 2.753-13.472 6.579-18.013 11.495-4.982 5.393-5.878 10.175-7.885 16.675.162-.024-.158-.757-.031-.379.127.379-.104.345.548 1.306 3.094 17.721 18.139 44.207 25.742 56.525 5.666 9.18 4.081 4.105 3.565 5.614 3-12.605 7.939-22.538 14.883-32.93zm-77.599-166.692c.486-.592.251-.333.335-.427 2.1-2.351 4.203-5.024 6.462-6.93 11.341-9.568 22.688-16.043 36.759-20.468-.079-.017-.143-.121-.195-.164-15.944-13.304-32.466-23.647-51.732-31.416 2.093 10.04 4.195 19.988 4.802 30.263.723 12.208-.353 24.326-1.658 36.458.7-1.135 1.688-2.561 2.429-3.62a90.751 90.751 0 0 1 2.798-3.696zm6.423 56.71c.048-.044.094-.168.138-.198.045-.03-.034-.062-.022-.075 9.449-9.953 18.509-17.349 31.912-21.567 14.021-4.412 27.753-3.221 42.159-.796-7.824-17.367-16.848-34.142-27.219-50.164-.783.104-.994-.377-1.872-.214-14.366 2.67-25.68 7.027-36.324 17.528-11.127 10.977-16.775 22.897-17.43 38.548-.015.024-.145-.357-.199-.27-.053.088-.009.252.068.385 3.144 5.48 6.035 11.123 8.789 16.823zm174.448 121.785c-7.815 1.441-14.859 1.796-22.8.716-7.163 11.532-11.678 23.707-13.036 37.158-1.358 13.452 1.565 24.317 6.48 36.62.023.058.08-.005.15.135s.275.406.416.592c1.298 1.707 2.743 3.257 4.405 4.618.135.111.263.163.381.266.472.413.867.814 1.24 1.341 10.531-.309 20.957-.133 31.277-2.55 13.015-3.048 24.852-8.273 36.971-13.696-11.003-7.369-21.029-14.59-29.307-25.151-9.361-11.94-13.628-25.194-16.177-40.049zm116.098-88.79c-.279-.044-1.222-.058-1.659-.148-13.961-2.87-25.901-7.568-37.803-15.453-2.735 11.804-5.963 23.382-10.154 34.758 9.247 10.591 19.8 15.959 33.113 20.148.433.136 1.121.25 1.602.358.073.016.2.041.237.05s.11.022.122.025c2.615.455 6.463 1.104 8.863 1.133 12.518.147 22.302-1.562 33.032-7.799 3.678-12.752 6.585-25.592 8.94-38.653-11.893 4.169-23.333 5.785-35.961 5.621-.045-.001-.054.005-.332-.04z" fill="#ffb400"/><path d="M949.651 635.53c-.623 3.674-1.352 7.406-2.083 11.091 11.912 7.886 23.84 12.595 37.82 15.44.437.089 1.36.128 1.641.165.28.037.288.037.332.037 12.627.163 24.068-1.453 35.957-5.622.083-.029.134-.066.212-.1.543-3.745 1.088-7.543 1.629-11.257-12.637 3.675-24.651 6.475-37.9 4.992-14.077-1.573-25.796-7.197-37.608-14.746zm31.698 67.564c-2.397-.028-6.248-.681-8.861-1.132-.012-.002-.085-.016-.122-.025s-.166-.031-.237-.05c-.47-.122-1.183-.208-1.615-.345-13.285-4.219-23.864-9.562-33.099-20.162-2.265 4.304-4.593 8.547-7.097 12.728 11.362 8.767 22.913 14.057 36.795 18.132 3.67 1.078 8.06 1.792 12.213 2.04 9.823.588 19.418-.346 29.043-2.712 2.218-5.36 4.098-10.807 6.014-16.274-10.73 6.239-20.514 7.945-33.034 7.8zm-39.807 43.692c-3.399-.809-8.511-2.791-11.498-4.444-9.076-5.021-15.6-10.293-21.463-18.631-3.154 3.587-6.564 6.917-10.086 10.156.105.069.047.135.124.211 2.644 2.581 3.674 5.118 6.99 7.328 10.112 6.742 20.516 12.406 32.457 16.327 8.008 2.629 17.376 3.575 25.971 4.32 4.639.402 9.504-.278 14.14-.634a691.39 691.39 0 0 0 11.381-15.767c-.941.259-.883.482-1.934.844-15.875 5.465-29.705 4.185-46.082.29zm-50.656 27.685a46.31 46.31 0 0 1-1.816-3.714c-1.313-3.029-2.537-6.005-3.5-9.045-.514-1.623-.643-3.13-.844-4.701a18.55 18.55 0 0 1-.139-2.63c.066-3.748.538-7.141 1.64-10.682-.344.112-.59.305-.903.486-4.632 2.693-9.372 4.885-14.395 6.83 2.572 14.862 6.81 28.11 16.187 40.066 8.293 10.574 18.47 17.724 29.473 25.088 4.29-2.414 8.497-4.801 12.682-7.332.123-.075.216-.175.367-.196-12.563-4.785-21.747-11.73-30.823-21.679-.662-.727-1.496-1.95-2.144-2.906-2.046-3.018-4.051-6.407-5.785-9.585zm-49.159 51.173c-.07-.137-.124-.084-.148-.142-5.052-12.301-8.064-23.233-6.71-36.718 1.353-13.485 5.934-25.605 12.962-37.216-1.174-.364-2.385-.602-3.565-1.071-3.608-1.433-6.965-3.254-10.368-5.132-7.204 13.71-10.279 27.631-11.044 42.953-.418 8.369.121 16.871 1.338 24.739 1.002 6.476 3.36 10.892 5.607 16.695.005.013-.01-.068.029-.038s.223.046.275.059c.052.014.083.016.116.023 5.872 1.245 11.744 2.004 17.721 2.479a5.947 5.947 0 0 0-1.228-1.301c-.051-.04-.101-.07-.157-.116-1.669-1.365-3.11-2.915-4.413-4.623-.141-.185-.345-.454-.415-.591zm-62.236-76.113c10.564-12.584 22.5-17.605 38.709-18.883.005-.052-.061-.111-.116-.186-3.24-4.411-6.27-8.911-8.969-13.688-3.736.109-7.453.417-11.1 1.271-2.735.641-5.717 1.886-8.242 2.985-7.575 3.296-15.695 11.241-20.445 16.318-3.327 3.556-.694.635-1.723 2.172-6.686 6.806-12.066 22.075-14.006 29.419-1.299 4.918-.391 3.123-.771 3.166 4.36 5.599 8.779 11.774 13.478 17.288.123-15.402 3.046-27.785 13.185-39.862zm-48.658-57.141c4.53-4.945 11.499-8.777 18.016-11.483.771-.32 2.062-.747 2.962-.97 2.577-.639 5.911-1.669 8.441-1.786 13.852-.638 25.284 1.193 37.656 7.339-1.609-5.238-3.095-10.453-4.796-15.705-15.836-4.416-31.321-6.72-47.337-2.839-12.436 3.013-20.008 9.951-28.95 18.336a253.688 253.688 0 0 1 2.13 8.464c1.174 4.969 2.506 9.894 3.933 14.808.049.169.157.338.073.548 1.985-6.536 2.903-11.287 7.872-16.712zm-2.315-85.001c-13.462 4.29-22.527 11.487-31.824 21.794-.011.013-.307-.726.918 2.036s5.415 12.596 6.683 16.841c6.492-14.071 15.231-21.899 29.706-28.085 4.395-1.879 10.642-2.981 15.299-3.113 10.353-.294 18.6 1.696 27.977 5.399-2.077-5.184-4.094-10.39-6.286-15.533-.099.02-.195-.102-.301-.119-14.485-2.396-28.089-3.708-42.172.78zm-23.264-33.644c10.613-10.478 21.963-14.882 36.305-17.526.982-.181 1.213.312 2.094.195-3.302-3.945-6.569-7.909-10.059-11.691-13.802 4.265-25.484 11.055-36.493 20.193-2.193 1.82-4.647 4.789-5.953 6.332-1.307 1.543-.523.651-.644.785-1.138 1.261-2.194 2.775-3.16 4.082-.967 1.307-1.667 2.451-2.549 3.751a189.153 189.153 0 0 1-5.48 20.805c2.898 3.633 5.652 7.429 8.269 11.264.091.133.173.282.255.367.594-15.641 6.32-27.604 17.415-38.557z" fill="#04294f"/><path d="M950.115 579.711c1.671 10.538 3.983 16.806-.075 33.525-7.513 30.955-6.928 24.3 8.732 31.426 10.685 4.862 21.923 6.426 35.708 7.932 13.548 1.48 25.742-.931 31.875-2.944 6.906-2.267 4.67 1.369 6.259-16.694.251-2.852 7.773-1.232 18.23-.312s23.767 2.091 26.756-10.101-1.43-16.413-4.282-16.664 3.152-.124 7.157-5.119c2.152-2.685 3.772-10.207 1.505-17.112-2.744-8.36-6.769-10.176-6.769-10.176s3.97-1.567 6.373-7.104 4.514-19.58-1.712-24.102c-4.503-3.27-1.734-2.069-1.734-2.069-7.605-.669 4.411-28.353-2.86-32.825-5.918-3.64-55.307-2.949-74.656-.819-22.807 2.511-38.78 5.211-45.457 26.659-7.273 23.355-6.282 38.726-5.05 46.499z" fill="#f04e23"/><path d="M992.142 539.567c4.93 1.526 9.921 2.034 15.046 2.393 5.36.375 10.721.612 16.093.709a360.347 360.347 0 0 0 32.651-.866c1.508-.11 3.011-.269 4.514-.431 1.47-.158 2.861-.495 4.309-.748 2.772-.483 5.611-.822 8.129-2.121 1.089-.561.816-2.31-.34-2.599-2.378-.594-4.851-.475-7.296-.429-2.563.048-5.096-.019-7.664.096-5.219.234-10.429.534-15.653.659-10.827.258-21.64.348-32.467.018-2.854-.087-5.706-.28-8.56-.353-2.767-.072-5.559.098-8.315.357-1.841.174-2.352 2.726-.447 3.315z" fill="#04294f"/><path d="m1010.361 543.231.003-.036c.048-.52-.329-1.128-.782-1.364-2.209-1.152-4.971.107-6.741 1.527-1.906 1.528-3.371 3.83-4.15 6.126-.891 2.624-.99 5.375-1.179 8.115-.1 1.449-.169 2.894-.219 4.345-.056 1.629-.345 3.532.622 4.949.945 1.385 3.331 2.171 4.585.591.663-.836.998-1.47 1.139-2.504.099-.725.135-1.438.165-2.167.053-1.303.125-2.606.136-3.91.021-2.509-.023-5.031.093-7.537.091-1.973.407-3.766 1.894-5.156a5.293 5.293 0 0 1 2.213-1.224c1.045-.284 2.101-.459 2.221-1.755z" fill="#04294f"/><path d="M999.621 566.735c-1.432 1.001-1.176 2.625-.391 3.967.876 1.498 3.022 2.092 4.551 2.587a117.714 117.714 0 0 0 12.326 3.245c4.162.866 8.379 1.622 12.605 2.102 4.181.475 8.453.447 12.671.451 1.893.002 2.437-3.055.461-3.407a631.345 631.345 0 0 1-5.625-1.027c-1.735-.326-3.38-.852-5.12-1.149-3.714-.634-7.427-1.265-11.134-1.935-3.637-.657-7.238-1.495-10.875-2.144-1.764-.315-3.557-.592-5.299-1.017-.604-.147-1.065-.384-1.618-.648l-.514-.217c.189.107.216.093.081-.043-.201-.188-.392-.388-.604-.568-.398-.339-1.04-.529-1.515-.197z" fill="#04294f"/><path d="M999.828 572.596c-.866 1.734-1.693 3.538-2.049 5.453a34.77 34.77 0 0 0-.604 5.96c-.042 3.671.227 8.66 3.052 11.355 1.428 1.362 3.567 2.105 5.364 2.801 1.904.737 3.82 1.422 5.777 2.003 1.955.581 3.983.91 5.988 1.282 1.035.192 2.055.238 3.088.377.596.08.36.04.841.257.654.294 1.219.292 1.918.204 1.585-.198 2.473-2.262.867-3.203-.387-.227-.824-.489-1.264-.61-.583-.16-1.059.029-1.637-.193-.895-.343-1.751-.699-2.666-.994-1.873-.605-3.686-1.36-5.555-1.967a234.719 234.719 0 0 1-5.351-1.791c-.884-.31-1.756-.679-2.651-.953-.698-.214-1.938-.25-2.43-.819l.588 1.42c-.288-3.226-1.146-6.35-1.224-9.619-.076-3.211.327-6.551.946-9.699.337-1.713-2.116-3.031-2.998-1.264zm.205 24.791c-1.665 1.17-1.742 3.671-2.119 5.531-.39 1.924-.641 3.857-.831 5.81-.179 1.84-.345 3.681-.484 5.525-.158 2.102-.335 4.613 1.158 6.288.806.904 2.268.769 3.094 0 1.517-1.414 1.527-3.964 1.645-5.893.116-1.906.184-3.816.305-5.723.116-1.843.197-3.669.188-5.517-.009-1.834.46-4.292-.854-5.75-.477-.529-1.503-.692-2.102-.271z" fill="#04294f"/><path d="M997.82 618.679c-.712 1.743 1.072 3.157 2.338 3.956a81.576 81.576 0 0 0 4.816 2.838c2.978 1.607 5.974 3.284 9.095 4.599 6.208 2.616 13.37 3.885 20.095 3.411 2.118-.149 2.406-2.844.486-3.591-3.336-1.299-6.833-2.105-10.288-3.013-2.62-.688-5.187-1.571-7.732-2.494a114.046 114.046 0 0 1-8.186-3.305c-1.803-.806-3.586-1.78-5.493-2.296-.643-.174-1.296-.326-1.934-.518-.621-.187-1.247-.167-1.852-.351-.614-.187-1.126.228-1.345.764zm22.444-17.697c2.075 1.255 4.577 1.866 6.897 2.526 2.16.615 4.321 1.249 6.524 1.692 4.169.838 8.365 1.522 12.586 2.041 4.122.507 8.227.82 12.381.803 2.266-.009 4.525-.052 6.785-.226 1.233-.095 2.413-.395 3.638-.526 1.201-.129 2.47-.246 3.529-.868.83-.488.896-1.823 0-2.294-1.08-.568-2.327-.662-3.529-.754-1.225-.094-2.41-.37-3.638-.459-2.26-.164-4.523-.256-6.785-.4-4.001-.256-8.015-.479-12.005-.872-3.867-.381-7.709-.943-11.533-1.626-2.226-.398-4.472-.68-6.706-1.031-2.404-.378-4.951-.979-7.386-.801-1.447.105-2.09 1.989-.758 2.795zm13.539-23.175c.875.76 1.514 1.091 2.664 1.321 1.072.214 2.181.311 3.264.448 1.839.232 3.681.449 5.532.562 3.402.207 6.778.248 10.178-.005a82.832 82.832 0 0 0 10.093-1.359c3.656-.731 7.015-2.054 10.567-3.127 2.153-.651 1.235-3.684-.914-3.315-1.003.172-2.006.341-3.01.502-.871.14-1.683-.008-2.551.116-1.703.244-3.405.459-5.108.709-3.071.45-6.166.836-9.261 1.07a153.65 153.65 0 0 1-9.994.452c-1.844.019-3.687.057-5.532.047-.909-.005-1.824-.057-2.732-.029-1.178.037-1.953.199-2.962.793-.605.355-.805 1.319-.234 1.815z" fill="#04294f"/><path d="M79.673 721.732c-.382-.191-.765-.191-1.147-.383-.382-.191-.956-.191-1.339-.383.764.192 1.529.574 2.486.766zm151.077 78.407c-.956-1.147-1.721-2.104-2.677-3.06a20.452 20.452 0 0 1 2.677 3.06zm-4.589-5.355c-1.147-1.339-2.486-2.486-3.633-3.825 1.338 1.339 2.485 2.678 3.633 3.825zm-63.874-45.323-7.458-3.442a64.75 64.75 0 0 1 7.458 3.442zm-46.088-17.403c-5.546-1.721-11.092-3.251-16.446-4.781 6.12 1.912 12.43 3.633 18.55 5.546a9.38 9.38 0 0 0-2.104-.765zm-18.741-5.545c-2.677-.574-5.163-1.339-7.841-2.104 2.677.765 5.354 1.53 7.841 2.104zm38.63 12.239c-1.339-.383-2.486-.956-3.634-1.339-.765-.191-1.53-.574-2.295-.765a54.077 54.077 0 0 1 5.929 2.104zm99.826 67.698c-1.147-1.53-2.486-3.06-3.633-4.59 1.338 1.53 2.485 3.06 3.633 4.59zm-16.064-18.168-.956-.956-1.147-1.147zM84.071 642.559a.191.191 0 0 0-.191.191c3.06 1.147 6.502 2.104 9.944 3.06 4.781 1.339 9.562 2.677 13.769 3.825 8.797 2.295 18.741 5.163 29.068 8.223 5.546 1.721 11.283 3.633 17.211 5.546 6.311 2.295 12.813 4.59 19.315 7.076 8.032 3.251 16.064 6.693 24.287 10.518 0 .106.086.191.191.191 2.486 1.147 5.163 2.486 7.841 3.825 2.295 1.147 4.781 2.486 7.267 3.825.191.191.382.191.574.383a376.25 376.25 0 0 1 16.638 9.753 256.064 256.064 0 0 1 74.583 71.523c1.721 2.486 3.442 4.972 4.972 7.458a279.37 279.37 0 0 1 29.833 63.3c.191.956.574 2.104.765 3.06a48.85 48.85 0 0 1 4.781 2.677 107.446 107.446 0 0 0 2.869 10.518c14.152-1.339 32.702-2.677 54.312-3.633V770.88c-12.048-.956-22.757-2.104-31.172-2.869a22.949 22.949 0 0 1-20.08-18.168l-17.594-86.248c-34.614-10.327-63.3-19.315-71.141-21.801h-.191c-.382-.191-.765-.191-1.147-.383a1.993 1.993 0 0 1-.765-.191c-17.02-6.12-31.172-26.391-37.674-53.164-5.355-.191-10.518 0-15.682.191-5.546.191-10.709.765-15.873 1.339l.191-.191a203.794 203.794 0 0 0-28.494 5.355v.191c-5.546 1.53-10.709 3.251-15.682 4.972 0-.191.191-.191.191-.383a168.176 168.176 0 0 0-26.965 12.43v.574c-4.781 2.869-8.988 5.737-13.004 8.606a.703.703 0 0 1-.191-.574 116.82 116.82 0 0 0-19.124 17.785c0 .383.191.574.191.956a23.829 23.829 0 0 0-2.869 3.633 2.28 2.28 0 0 0-.954-.381zm155.094 168.289a3.99 3.99 0 0 0-.765-1.147 38.692 38.692 0 0 1 2.486 3.442zm-96.193-69.801a1.145 1.145 0 0 1-.765-.191c.574.191.956.382 1.53.574-.191-.001-.382-.192-.765-.383zm115.317 103.268a221.535 221.535 0 0 0-11.092-21.227 216.704 216.704 0 0 0-6.311-9.753 176.086 176.086 0 0 1 17.403 30.98zm1.721 3.251c-.383-.765-.574-1.339-.956-2.104.574 1.339 1.147 2.869 1.721 4.207a9.259 9.259 0 0 1-.765-2.103zm-94.281-96.575c-.956-.382-1.721-.765-2.677-1.147a207.984 207.984 0 0 1 49.913 32.128c.765.574 1.339 1.339 2.104 1.912-2.486-2.295-4.972-4.59-7.65-6.693-1.53-1.339-3.06-2.486-4.59-3.634-1.147-.765-2.104-1.53-3.06-2.295-6.12-4.398-12.239-8.223-18.359-11.857a28.709 28.709 0 0 0-3.251-1.912l-6.311-3.442c-1.721-.956-3.634-1.721-5.355-2.677zM39.704 708.345l-2.295-1.147c.191.191.574.191.765.382a3.841 3.841 0 0 1 1.53.765zm80.702 25.052c2.486.765 4.972 1.721 7.458 2.486-2.486-.956-4.972-1.721-7.458-2.486zm-61.961-17.976c-1.339-.383-2.677-.956-4.016-1.339 1.339.383 2.486.765 3.634 1.147 0 .192.191.192.382.192z" fill="none"/><path d="M418.928 1029.051c0 .191-.191.191-.191.383a41.956 41.956 0 0 1-9.562 9.753 63.826 63.826 0 0 1-27.729 11.665 76.895 76.895 0 0 1-13.195 1.147 65.998 65.998 0 0 1-16.638-2.104 45.05 45.05 0 0 1-7.65-2.677c3.081 11.638 5.854 24.819 8.459 39.521.346.016.704.066 1.076.157.034.008.068.012.101.02.685-.218 1.373-.42 2.075-.579a4.851 4.851 0 0 1 2.038-.468h1.565c.77 0 1.476.185 2.111.492 2.16-.238 4.174-.372 5.643-.565 10.601-1.393 17.994-2.129 28.768-3.318.911-.101 1.686.02 2.335.297 4.545-.901 9.153-.46 13.952-.318 3.022.09 6.022.161 9.012.29.986-1.586 1.752-3.232 2.229-4.931a5.473 5.473 0 0 1 4.972-4.207c-2.869-16.446-5.928-31.171-9.371-44.558z" fill="#ffb400"/><path d="M353.142 1015.281a63.903 63.903 0 0 1-20.08-3.06c1.912 5.163 3.634 10.901 5.546 17.02l.574.574a22.639 22.639 0 0 0 5.928 4.972 35.28 35.28 0 0 0 8.988 3.634 56.867 56.867 0 0 0 24.861.765 53.09 53.09 0 0 0 22.949-9.562 31.017 31.017 0 0 0 7.076-7.076 21.623 21.623 0 0 0 3.251-7.458 6.43 6.43 0 0 1 1.912-3.06c-1.147-4.016-2.295-7.841-3.442-11.665a86.776 86.776 0 0 1-8.797-5.737 65.564 65.564 0 0 1-48.766 20.653z" fill="#ffb400"/><path d="M429.7 1083.35c-.544-3.289-1.103-6.559-1.593-9.741a5.713 5.713 0 0 0-4.972 4.207c-.476 1.696-1.24 3.34-2.224 4.924 2.937.124 5.862.306 8.789.61zm-90.135-53.152-.574-.574c1.721 5.546 3.442 11.474 4.972 17.785 2.486.956 4.972 1.912 7.65 2.677a67.222 67.222 0 0 0 16.638 2.104 76.895 76.895 0 0 0 13.195-1.147 65.854 65.854 0 0 0 27.729-11.666 50.973 50.973 0 0 0 9.562-9.753c0-.191.191-.191.191-.382-1.53-5.928-3.06-11.666-4.59-17.02a4.73 4.73 0 0 0-1.912 3.06 19.748 19.748 0 0 1-3.251 7.458 35.406 35.406 0 0 1-7.076 7.076 54.093 54.093 0 0 1-22.949 9.562 59.917 59.917 0 0 1-24.861-.765 29.481 29.481 0 0 1-8.988-3.634 25.21 25.21 0 0 1-5.736-4.781z" fill="#04294f"/><path d="M553.522 1165.692c.653.15 1.306.302 1.955.443a5.006 5.006 0 0 1 1.45.57c6.611 1.837 13.389 3.02 20.249 3.828 2.295.201 4.609.359 6.972.491 1.976.11 3.969.368 5.967.665 2.291.152 4.584.283 6.878.404a20.157 20.157 0 0 1 7.205-.532 452.709 452.709 0 0 0 1.761-17.25 37.935 37.935 0 0 1-11.857 6.885 60.315 60.315 0 0 1-21.61 3.825 64.346 64.346 0 0 1-8.414-.574 75.925 75.925 0 0 1-28.303-9.179 48.447 48.447 0 0 1-6.885-4.781l-.033.358c.043.049.087.091.129.142 3.575 4.325 8.751 6.728 13.084 10.204a88.083 88.083 0 0 0 11.452 4.501z" fill="#ffb400"/><path d="M607.298 1135.953c.574-14.152.574-27.921.191-41.307a42.055 42.055 0 0 1-10.327 7.458 63.645 63.645 0 0 1-29.451 6.693h-.191a72.36 72.36 0 0 1-29.068-5.737 48.212 48.212 0 0 1-8.223-4.59c.383 11.666.191 23.714-.382 36.144a29.897 29.897 0 0 0 11.474 10.709 61.673 61.673 0 0 0 23.905 7.649 54.057 54.057 0 0 0 24.67-2.677 25.624 25.624 0 0 0 13.96-11.283 6.005 6.005 0 0 1 3.442-3.059z" fill="#ffb400"/><path d="M606.341 1076.286c-1.147-15.682-2.869-30.598-4.781-44.367a51.47 51.47 0 0 1-8.414 7.076 74.008 74.008 0 0 1-37.1 10.327 69.1 69.1 0 0 1-21.036-3.06 47.328 47.328 0 0 1-9.944-4.398c1.721 12.239 3.251 25.243 4.207 39.204.191.191.382.574.574.765 2.104 4.016 6.693 7.65 13.195 10.518a63.467 63.467 0 0 0 24.478 4.781h.191a53.244 53.244 0 0 0 24.096-5.355 24.518 24.518 0 0 0 12.622-12.622 9.441 9.441 0 0 1 1.912-2.869z" fill="#ffb400"/><path d="M597.927 1015.664a3.841 3.841 0 0 1 .765-1.53c-2.104-11.857-4.398-22.757-6.693-32.319a66.333 66.333 0 0 1-57.754 33.658 67.9 67.9 0 0 1-13.96-1.53c.765 3.251 1.53 6.885 2.104 10.518a10.014 10.014 0 0 1 2.104 1.912c2.677 3.825 7.649 7.076 14.343 9.179a62.791 62.791 0 0 0 24.861 2.104 54.505 54.505 0 0 0 23.331-8.032c5.736-3.824 9.752-8.605 10.899-13.96z" fill="#ffb400"/><path d="M594.485 1160.814a40.206 40.206 0 0 0 11.857-6.885c.383-6.12.956-12.239 1.147-18.168a5.694 5.694 0 0 0-3.442 2.869 25.628 25.628 0 0 1-13.96 11.283 52.136 52.136 0 0 1-24.67 2.677 60.649 60.649 0 0 1-23.905-7.65 29.905 29.905 0 0 1-11.474-10.709c-.382 5.355-.574 10.709-1.147 16.064a62.422 62.422 0 0 0 6.885 4.781 72.619 72.619 0 0 0 28.303 9.179c2.789.375 5.6.567 8.414.574a56.835 56.835 0 0 0 21.992-4.015zm2.677-58.519a42.107 42.107 0 0 0 10.327-7.458c-.191-6.12-.574-12.239-.956-18.168a4.949 4.949 0 0 0-2.104 2.677 26.823 26.823 0 0 1-12.622 12.622 53.27 53.27 0 0 1-24.096 5.355h-.191a63.467 63.467 0 0 1-24.478-4.781c-6.502-2.869-11.092-6.693-13.195-10.518a2.641 2.641 0 0 0-.574-.765c.383 5.546.765 11.283.956 17.211a48.28 48.28 0 0 0 8.223 4.59 76.737 76.737 0 0 0 29.259 5.737 66.073 66.073 0 0 0 29.451-6.502zm4.59-69.802a1207.136 1207.136 0 0 0-2.869-17.976 3.841 3.841 0 0 0-.765 1.53c-1.339 4.972-5.355 9.944-11.092 13.769a52.077 52.077 0 0 1-23.331 8.032 62.773 62.773 0 0 1-24.861-2.104c-6.693-2.295-11.857-5.546-14.343-9.179a4.953 4.953 0 0 0-2.104-1.912c.956 5.546 1.912 11.474 2.869 17.594a47.351 47.351 0 0 0 9.944 4.398 75.582 75.582 0 0 0 21.036 3.06 74.008 74.008 0 0 0 37.1-10.327 52.276 52.276 0 0 0 8.416-6.885z" fill="#04294f"/><path d="M522.197 421.488v.574c6.885-.382 12.813-.956 18.359-1.53 26.773-2.869 33.084-6.311 43.411-9.371a27.077 27.077 0 0 0 5.928-2.677 11.347 11.347 0 0 0 3.442-2.486l.765-.765.191-.191c5.928-5.928 10.901-15.682 12.622-31.363a71.161 71.161 0 0 1-17.02 7.267c-12.43 2.295-26.2 7.841-62.535 10.709-14.343 1.147-32.51 1.912-55.459 1.912-12.048 0-22.566-.191-32.128-.574-1.721 0-3.634-.191-5.355-.191-29.642-2.295-28.686-32.128-28.686-43.793s-.956-39.395 29.642-39.012c.947.159 1.908.223 2.869.191h.191c9.753.382 21.036.574 33.658.574 22.949 0 40.925-.765 55.459-1.912 36.335-2.869 50.104-8.223 62.535-10.709 3.633-.765 18.932-4.972 23.713-7.65.574-6.693.956-13.387 1.53-19.698 5.355-1.53 9.944-3.06 13.96-4.59a13.489 13.489 0 0 0 8.606-10.518c3.442-22.566 4.207-61.196.191-87.204v-.191a169.775 169.775 0 0 0-.574-3.825 12.987 12.987 0 0 0-.401-1.614c-2.183-6.89-9.539-10.705-16.428-8.522h-.191c-1.53.382-3.251.956-4.972 1.53-.765.191-1.721.574-2.486.765h-.191c-.956.191-1.912.574-2.869.765-.956.191-1.912.574-2.869.765-4.016 1.147-8.414 2.104-13.387 3.251a.703.703 0 0 1-.574.191l-5.163 1.147c-.574.191-1.147.191-1.912.382l-6.311 1.147c-1.721.382-3.442.574-5.355.956-.956.191-1.721.191-2.677.382-2.677.382-5.546.765-8.414 1.147a681.305 681.305 0 0 1-71.905 5.163 671.99 671.99 0 0 1-74.663-1.536c-7.214-.557-13.514 4.84-14.071 12.054a425.701 425.701 0 0 0 2.869 90.264v.191c-.045.455.02.914.191 1.339a11.996 11.996 0 0 0 4.59 6.885c26.008 9.371 113.404 3.825 150.313 0 42.072-4.398 8.797 6.693-30.216 11.283-58.136 6.693-124.305 5.737-143.237-6.502-11.092-7.267-10.136-27.538-11.666-59.857a262.55 262.55 0 0 1 0-38.821l-3.825 4.59a25.033 25.033 0 0 1-19.506 9.179 23.745 23.745 0 0 1-21.036-12.813l-.574-.956a25.505 25.505 0 0 0 25.626-8.414l13.578-16.255c9.423-11.327 7.973-28.129-3.251-37.674L248.727 25.626a4.997 4.997 0 0 0-7.267.574l-9.179 10.709a12.914 12.914 0 0 0 .383 17.403l23.713 25.243a11.724 11.724 0 0 1 .574 15.682l-1.912 2.295a12.163 12.163 0 0 0 .574 15.682l62.535 66.742a24.664 24.664 0 0 0 7.267 5.355 397.105 397.105 0 0 0 .191 54.312c2.677 39.969 10.136 130.615 10.136 130.615 1.339 17.211 6.693 28.112 13.004 34.232l.191.191.765.765a38.692 38.692 0 0 0 3.442 2.486 27.005 27.005 0 0 0 5.928 2.677c10.327 3.06 16.638 6.502 43.411 9.371a614.986 614.986 0 0 0 65.595 2.869c22.373-.002 39.967-.767 54.119-1.341zM318.146 111.3l-13.387 15.682a3.346 3.346 0 0 1-2.677 1.339h-.191a3.775 3.775 0 0 1-2.677-1.147l-36.144-35.38a3.786 3.786 0 0 1 5.355-5.354l33.084 32.319 8.414-9.753-73.244-67.507a3.79 3.79 0 0 1 5.164-5.546l76.113 69.993a3.86 3.86 0 0 1 .19 5.354zm15.682 54.312c-8.415 0-15.108-8.797-15.108-19.697 0-10.901 6.693-19.698 15.108-19.698 8.223 0 15.108 8.797 15.108 19.698-.001 10.9-6.694 19.697-15.108 19.697zm229.485 95.81a678.014 678.014 0 0 1-69.802 4.972c-8.414.191-16.829.382-24.478.382-12.048 0-23.14-.191-33.467-.765a14.943 14.943 0 0 1-13.96-13.387 406.185 406.185 0 0 1-1.721-48.383l.008-.202c.371-8.18 7.302-14.511 15.483-14.14 9.562.382 19.889.574 30.789.574 8.032 0 16.638-.191 25.435-.382a700.403 700.403 0 0 0 73.818-5.355 357.192 357.192 0 0 0 37.865-6.885 14.842 14.842 0 0 1 2.517-.364c8.172-.472 15.179 5.77 15.651 13.942.716 15.874.46 31.776-.765 47.618a15.002 15.002 0 0 1-10.518 12.813 278.304 278.304 0 0 1-46.855 9.562z" fill="#f04e23"/><path d="M483.949 38.439c-4.398-.382-8.606-.382-12.622-.382-33.467 0-85.483 5.737-117.802 53.164l39.395 33.275a26.808 26.808 0 0 1 8.606 27.347c17.976 1.721 39.777 2.677 66.933 2.677a657.96 657.96 0 0 0 71.905-3.251 309.319 309.319 0 0 0 56.033-10.709 38.083 38.083 0 0 1 14.152-.765c-21.61-83.762-83.38-99.061-126.6-101.356z" fill="#f04e23"/><path d="M338.035 982.771c-2.104 9.179-4.59 18.741-7.458 28.686.956.382 1.912.574 2.869.956a68.932 68.932 0 0 0 20.08 3.06 66.865 66.865 0 0 0 48.383-20.845 65.977 65.977 0 0 0 18.168-45.706c-.074-35.985-28.671-65.428-64.638-66.551 4.59 19.124 8.606 48.192 8.606 100.4H340.33a2.333 2.333 0 0 0 1.721-1.53 157.132 157.132 0 0 0 3.633-16.446 248.552 248.552 0 0 0 2.295-16.638c.383-5.546.956-11.283.956-16.829a101.391 101.391 0 0 0-.772-17.077 2.378 2.378 0 0 0-2.67-2.046 2.435 2.435 0 0 0-2.104 2.104l-3.251 32.893c-.956 11.092-2.104 22.184-2.486 33.275a2.273 2.273 0 0 0 1.912 2.295h-1.529zm247.96 8c23.142-28.593 18.723-70.532-9.87-93.674a263.555 263.555 0 0 1-39.586 65.212 390.615 390.615 0 0 1-21.419 23.905 82.7 82.7 0 0 1-9.753 8.606 100.721 100.721 0 0 1-11.283 7.076 67.01 67.01 0 0 0 40.16 13.578 66.611 66.611 0 0 0 51.751-24.703zM270.91 465.473a29.664 29.664 0 0 0-7.076.765c-.382.191-.765.191-1.147.382-16.255 4.398-30.024 21.419-37.674 44.941 5.928 0 12.048.382 18.168.765 4.207 2.104 7.841 6.693 10.327 12.813a55.113 55.113 0 0 1 3.634 24.478 66.678 66.678 0 0 1-5.737 24.478c-2.869 6.12-6.502 10.709-10.136 12.622a6.601 6.601 0 0 0-2.295 2.295c5.163.382 10.327.765 15.49 1.53a48.981 48.981 0 0 0 7.458-11.666 77.136 77.136 0 0 0 6.885-28.686 69.688 69.688 0 0 0-4.398-29.642 36.743 36.743 0 0 0-3.442-6.693h.383c.218-.236.477-.431.765-.574v.574a228.33 228.33 0 0 1 15.299 2.295 40.793 40.793 0 0 1 8.606 2.486c6.502 8.032 10.709 21.036 10.709 35.57s-4.207 27.538-10.709 35.379a38.567 38.567 0 0 1-21.419 2.486c-1.147-.191-2.486-.383-3.634-.574s-2.486-.382-3.634-.574a281.495 281.495 0 0 0-34.614-2.869c6.502 26.773 20.654 47.044 37.674 53.164.262.03.519.094.765.191.383.191.765.191 1.147.383h.191a32.199 32.199 0 0 0 8.606 1.147c28.877 0 52.399-39.777 52.399-88.926s-23.523-88.923-52.591-88.54z" fill="#04294f"/><path d="M261.157 641.412c.383.191.765.191 1.147.383a7.352 7.352 0 0 0-1.147-.383z" fill="#00aee0"/><path d="M481.081 700.695c16.064 0 55.65-14.152 92.368-28.877 33.467-13.387 64.638-27.156 73.627-31.172.191-.191.382-.191.574-.383 1.147-.382 1.721-.765 1.912-.765 10.709-5.163 20.08-15.873 26.773-30.216a113.55 113.55 0 0 0 7.076-19.697 143.075 143.075 0 0 0 4.398-35.762 152.643 152.643 0 0 0-3.06-30.216c-6.311-29.833-21.801-52.208-40.542-57.563h-.382c-4.398-1.721-46.853-16.829-122.01-21.227v7.65c8.606 2.677 11.474 6.311 11.474 10.327 0 8.797-21.036 15.873-71.14 15.873s-71.141-7.076-71.141-15.873c0-4.016 3.06-7.458 11.474-10.327v-8.414c-59.475.956-74.965 4.781-138.647 21.61a42.15 42.15 0 0 1 7.076-.765c28.877 0 52.399 39.777 52.399 88.926s-23.522 88.926-52.399 88.926a33.306 33.306 0 0 1-8.606-1.147c8.032 2.486 36.718 11.474 71.141 21.801 15.682 4.781 32.51 9.562 49.148 14.343 43.41 12.239 84.909 22.948 98.487 22.948zm-111.75-60.148a7.796 7.796 0 0 1-2.993-10.61 63.349 63.349 0 0 0 8.414-22.566 7.916 7.916 0 0 1 6.885-6.311 62.017 62.017 0 0 1 13.578-.191 7.841 7.841 0 0 1 7.076 8.797 69.69 69.69 0 0 1-12.813 31.745 7.814 7.814 0 0 1-8.606 2.869c-2.677-.956-6.12-1.912-9.944-3.06a7.757 7.757 0 0 1-1.597-.673zm-33.4-7.741a6.501 6.501 0 0 1-3.633-9.944 52.325 52.325 0 0 0 7.076-18.932 6.694 6.694 0 0 1 5.737-5.355 75.512 75.512 0 0 1 11.474 0 6.586 6.586 0 0 1 5.928 7.459 62.623 62.623 0 0 1-10.901 26.773 6.739 6.739 0 0 1-7.267 2.486c-2.294-.575-5.163-1.531-8.414-2.487zm282.458 1.53a5.39 5.39 0 0 1-6.694-7.841c5.928-9.371 6.885-11.857 8.797-22.375a5.448 5.448 0 0 1 3.633-4.207 33.793 33.793 0 0 1 12.048-1.147 5.294 5.294 0 0 1 4.972 5.929c-.765 6.885-1.912 14.725-8.223 22.757a8.498 8.498 0 0 1-2.104 1.53 623.869 623.869 0 0 0-12.429 5.354zm-39.586 8.988a6.526 6.526 0 0 1-8.032-9.562c6.885-11.283 8.223-14.343 10.327-26.773a6.444 6.444 0 0 1 4.398-5.163 37.867 37.867 0 0 1 14.534-1.339 6.363 6.363 0 0 1 5.929 7.075c-.956 8.414-2.295 17.594-9.944 27.347a4.893 4.893 0 0 1-2.486 1.912 569.657 569.657 0 0 1-14.726 6.503zm-92.75-122.775c-6.12 0-12.239-.191-18.359-.191-6.12-.382-12.239-.382-18.359-.765-12.239-.574-24.478-1.53-36.718-2.486a1178.13 1178.13 0 0 1-72.862-8.032 3.278 3.278 0 0 1-3.06-3.634 3.601 3.601 0 0 1 3.825-3.251c24.287 1.721 48.574 3.442 72.862 4.781 24.287 1.147 48.574 2.295 72.67 1.912 5.928 0 12.048-.382 17.976-.574 6.12-.383 12.048-.574 18.168-1.147a1155.568 1155.568 0 0 0 36.144-3.442c12.048-1.147 24.096-2.677 36.144-4.207l18.168-2.295 17.976-2.486a3.318 3.318 0 0 1 3.634 2.486 3.442 3.442 0 0 1-2.486 4.016c-5.928 1.53-12.048 2.869-17.976 4.016s-11.857 2.486-17.976 3.442c-12.048 2.104-24.287 4.016-36.335 5.737s-24.287 3.251-36.526 4.207c-6.12.574-12.239.956-18.359 1.339-6.121.192-12.431.574-18.551.574z" fill="#f04e23"/><path d="M468.268 773.748c12.43 0 24.096-.574 34.614-1.339 14.152-1.147 26.2-2.486 34.997-3.825a23.005 23.005 0 0 0 19.124-17.976l16.829-78.79c-36.718 14.725-76.304 28.877-92.368 28.877-14.152 0-55.65-10.709-99.061-22.949l15.49 75.539c2.104 10.136 7.65 17.594 21.036 18.55 16.446 1.148 34.04 1.913 49.339 1.913zm-46.471-72.479a8.448 8.448 0 0 1-2.295 5.355c-.383.383-.765.574-1.147.956a4.776 4.776 0 0 1-1.339.765c-.574.191-.956.191-1.53.383a4.22 4.22 0 0 1-1.53.191 8.448 8.448 0 0 1-5.355-2.295 6.944 6.944 0 0 1-2.295-5.355 8.035 8.035 0 0 1 2.295-5.355 7.6 7.6 0 0 1 6.885-2.104 3.605 3.605 0 0 1 1.53.383c.383.191.956.574 1.339.765.428.26.814.583 1.147.956a7.24 7.24 0 0 1 2.295 5.355zm6.693 30.598a7.567 7.567 0 0 1-6.12 9.18 3.714 3.714 0 0 1-1.53.191 7.726 7.726 0 0 1-1.545-15.274 7.726 7.726 0 0 1 9.195 5.903zm16.064 11.283c4.225.106 7.564 3.616 7.458 7.841s-3.616 7.564-7.841 7.458h-.383a7.659 7.659 0 1 1 .766-15.299zm99.826-35.379a3.53 3.53 0 0 1-1.339.382 6.216 6.216 0 0 1-3.06 0 4.48 4.48 0 0 1-1.53-.383c-.382-.191-.956-.574-1.339-.765a5.062 5.062 0 0 1-1.147-.956 6.944 6.944 0 0 1-2.295-5.355 7.556 7.556 0 0 1 2.295-5.355c.333-.374.72-.696 1.147-.956a4.776 4.776 0 0 1 1.339-.765c.574-.191.956-.191 1.53-.383a8.242 8.242 0 0 1 3.06 0 3.55 3.55 0 0 1 1.339.383c.504.138.964.401 1.339.765.428.26.814.583 1.147.956a6.944 6.944 0 0 1 2.295 5.355 7.556 7.556 0 0 1-2.295 5.355c-.383.383-.765.574-1.147.956a3.072 3.072 0 0 1-1.339.766zm-11.665 32.511a7.478 7.478 0 0 1-5.928-8.988 7.65 7.65 0 1 1 7.65 9.18 5.35 5.35 0 0 1-1.722-.192zm-30.407 10.135c-.422-4.225 2.66-7.992 6.885-8.414s7.992 2.66 8.414 6.885-2.66 7.992-6.885 8.414h-.765a7.668 7.668 0 0 1-7.649-6.885zm-25.243 8.988a7.967 7.967 0 0 1-7.841-7.65c-.053-4.278 3.372-7.788 7.65-7.841s7.788 3.372 7.841 7.65a7.595 7.595 0 0 1-7.65 7.841z" fill="#ffb400"/><path d="M503.073 854.833v-82.232c-10.518.765-22.184 1.339-34.614 1.339-15.49 0-32.893-.765-49.339-1.912-13.387-.956-18.933-8.414-21.036-18.55l-15.49-75.539c-16.638-4.781-33.467-9.562-49.148-14.343l17.594 86.248a22.759 22.759 0 0 0 20.08 18.168c8.223.956 19.124 1.912 31.172 2.869v83.953a9.088 9.088 0 0 0 5.737 8.797c6.884 2.295 20.845 5.355 44.558 5.355s37.674-3.06 44.558-5.355a9.522 9.522 0 0 0 5.928-8.798z" fill="#04294f"/><path d="M649.944 639.691a6.7 6.7 0 0 0-1.912.765c.65-.222 1.288-.478 1.912-.765z" fill="#00aee0"/><path d="M402.673 454.764v-1.912c-8.606 2.677-11.474 6.311-11.474 10.327 0 8.797 21.036 15.873 71.141 15.873s71.14-7.076 71.14-15.873c0-4.016-3.06-7.458-11.474-10.327v1.912a9.18 9.18 0 0 1-6.693 8.797c-8.223 2.295-24.67 5.355-52.973 5.355-28.112 0-44.75-3.06-52.973-5.355a8.962 8.962 0 0 1-6.694-8.797z" fill="#04294f"/><path d="M522.197 454.572v-33.658c-13.96 1.147-31.554 1.912-53.929 1.912-21.9.218-43.797-.74-65.595-2.869v34.614a9.18 9.18 0 0 0 6.693 8.797c8.223 2.295 24.67 5.355 52.973 5.355 28.112 0 44.75-3.06 52.973-5.355a8.855 8.855 0 0 0 6.693-8.797zm-278.825 56.033c-6.311-.382-12.239-.574-18.168-.765-60.049-1.147-104.99 14.343-134.44 29.451-49.148 25.243-82.423 64.064-89.499 104.033a55.131 55.131 0 0 0-.574 15.49c.161 1.67.417 3.331.765 4.972a51.547 51.547 0 0 0 5.355 14.917 60.803 60.803 0 0 0 13.387 16.255 83.214 83.214 0 0 0 17.02 10.901l2.295 1.147c.956.383 1.721.765 2.677 1.147.765.383 1.53.765 2.486 1.147.956.383 1.721.765 2.677 1.147 1.721.574 3.634 1.339 5.355 1.912.574.191.956.382 1.53.574 1.339.383 2.677.956 4.016 1.339a10.8 10.8 0 0 0 2.295.765c-.956-2.295-1.721-4.59-2.486-7.076a72.874 72.874 0 0 1-1.53-29.642 63.296 63.296 0 0 1 10.901-28.112 40.238 40.238 0 0 1 9.753-9.944c4.399.956 6.885 1.53 6.885 1.53a.191.191 0 0 0 .191-.191c-1.147-.191-4.016-.765-7.841-1.721a52.51 52.51 0 0 0-4.016-10.709 86.984 86.984 0 0 0-14.725-20.845c-6.502-6.502-13.769-11.283-20.654-13.195a27.72 27.72 0 0 0-12.43-.574 134.36 134.36 0 0 1 9.562-11.666c2.104.383 4.016.765 6.12 1.339a59.205 59.205 0 0 1 25.626 16.255 96.603 96.603 0 0 1 16.829 23.713 61.538 61.538 0 0 1 4.972 13.387 102.613 102.613 0 0 1 19.124-17.785 4.86 4.86 0 0 1 .382-3.633 14.31 14.31 0 0 0 1.339-6.12 56.797 56.797 0 0 0-.382-9.562 76.904 76.904 0 0 0-7.076-24.287 49.469 49.469 0 0 0-15.108-19.315 27.107 27.107 0 0 0-8.797-4.398 21.052 21.052 0 0 0-5.928-.765c4.59-2.869 9.371-5.737 14.152-8.414a49 49 0 0 1 7.458 4.207 62.338 62.338 0 0 1 18.741 23.713 89.558 89.558 0 0 1 8.223 27.921c.591 3.924.719 7.903.382 11.857v.383a160.615 160.615 0 0 1 26.965-12.43c.382-.383.574-.956.956-1.339 2.677-2.677 4.59-8.032 5.546-14.917a74.139 74.139 0 0 0-1.147-25.243 52.244 52.244 0 0 0-10.136-22.566c-4.207-5.355-9.371-8.606-14.534-9.179a3.605 3.605 0 0 1-1.53-.383 226.332 226.332 0 0 1 17.211-5.163 47.443 47.443 0 0 1 7.841 7.458 66.725 66.725 0 0 1 12.43 27.347 79.83 79.83 0 0 1 1.339 29.259 69.102 69.102 0 0 1-2.295 9.944 203.94 203.94 0 0 1 28.494-5.355c.191 0 .382-.191.574-.383 3.251-2.295 6.12-7.267 8.223-13.769a66.736 66.736 0 0 0 2.869-25.052 59.456 59.456 0 0 0-6.693-23.905c-3.442-5.928-7.841-9.944-12.622-11.474a4.587 4.587 0 0 1-2.295-1.339 265.98 265.98 0 0 1 18.168-1.721 45.79 45.79 0 0 1 6.693 8.988 67.961 67.961 0 0 1 8.032 28.877 77.966 77.966 0 0 1-3.251 29.259 55.326 55.326 0 0 1-4.016 9.562c4.972-.191 10.327-.191 15.682-.191a284.28 284.28 0 0 1 34.614 2.869c1.147.191 2.295.382 3.634.574 1.147.191 2.486.382 3.634.574a36.927 36.927 0 0 0 21.419-2.486c6.502-7.841 10.709-20.845 10.709-35.379 0-14.725-4.207-27.729-10.709-35.57a40.793 40.793 0 0 0-8.606-2.486 228.33 228.33 0 0 0-15.299-2.295v-.574c-.191.191-.574.382-.765.574h-.383a36.743 36.743 0 0 1 3.442 6.693 70.15 70.15 0 0 1 4.398 29.642 77.117 77.117 0 0 1-6.885 28.686 43.71 43.71 0 0 1-7.458 11.666c-5.355-.574-10.518-1.147-15.49-1.53a5.31 5.31 0 0 1 2.295-2.295c3.634-1.912 7.267-6.502 10.136-12.622a67.608 67.608 0 0 0 5.737-24.478 58.45 58.45 0 0 0-3.633-24.478 36.482 36.482 0 0 0-10.138-14.153z" fill="#ffb400"/><path d="M107.976 649.444a508.437 508.437 0 0 1-13.769-3.825 5.26 5.26 0 0 1-2.869 1.53 24.769 24.769 0 0 0-14.343 10.518 53.26 53.26 0 0 0-8.797 23.14 63.99 63.99 0 0 0 1.339 25.052c1.912 6.885 4.781 12.048 8.414 14.725l.765.765c.382.191.765.191 1.147.383 3.251.765 6.693 1.721 9.944 2.677 2.486.574 5.163 1.339 7.841 2.104.382.191.956.191 1.339.383.382 0 .574.191.956.191 5.355 1.53 10.901 3.06 16.446 4.781a50.366 50.366 0 0 1-3.06-11.474 74.946 74.946 0 0 1 2.104-29.642 62.336 62.336 0 0 1 14.152-26.582 44.004 44.004 0 0 1 7.267-6.311c-10.326-3.061-20.271-5.738-28.876-8.415zm94.089 123.731c1.53 1.147 3.06 2.486 4.59 3.633a63.133 63.133 0 0 1 1.721-13.96 79.041 79.041 0 0 1 12.239-26.773 61.07 61.07 0 0 1 22.949-20.08 37.185 37.185 0 0 1 7.267-2.677c4.399 3.251 8.606 6.885 12.813 10.518a25.384 25.384 0 0 0-15.108 2.486 47.206 47.206 0 0 0-18.359 16.255 70.04 70.04 0 0 0-10.518 22.949c-1.53 6.693-1.721 12.622-.383 16.446a5.455 5.455 0 0 1-.574 5.163l.956.956a36.848 36.848 0 0 0 2.677 2.869c1.147 1.147 2.486 2.486 3.633 3.825.574.765 1.339 1.339 1.912 2.104.956.956 1.721 2.104 2.677 3.06.574.574.956 1.339 1.53 1.912 1.147 1.53 2.486 3.06 3.633 4.59.765 1.147 1.721 2.295 2.486 3.442.191.383.574.574.765.956.383-.956.574-1.721.956-2.677a52.337 52.337 0 0 1 5.546-10.709 88.91 88.91 0 0 1 19.889-21.61 56.606 56.606 0 0 1 28.112-12.048c2.104-.191 4.207-.191 6.311-.191 1.53 2.104 3.251 4.398 4.781 6.693a258.475 258.475 0 0 0-74.583-71.523 376.25 376.25 0 0 0-16.638-9.753 25.659 25.659 0 0 0-16.446 5.928 49.472 49.472 0 0 0-14.725 19.698 65.946 65.946 0 0 0-5.546 24.478c0 7.076 1.147 12.813 3.633 16.446a4.793 4.793 0 0 1 .956 3.633 187.493 187.493 0 0 1 18.359 11.857 15.405 15.405 0 0 1 2.489 2.104zm3.824-88.161c2.295 1.147 4.781 2.486 7.267 3.825-2.486-1.339-4.972-2.678-7.267-3.825z" fill="#ffb400"/><path d="M339.373 841.446a283.293 283.293 0 0 0-29.833-63.3 20.79 20.79 0 0 0-4.781-1.912 29.94 29.94 0 0 0-10.136-.574 45.986 45.986 0 0 0-22.375 9.753 79.67 79.67 0 0 0-17.02 18.741 48.341 48.341 0 0 0-4.59 8.606 19.734 19.734 0 0 0-1.53 6.311 5.64 5.64 0 0 1-2.104 4.207 184.135 184.135 0 0 1 11.092 21.227l.574 1.147c.383.765.574 1.339.956 2.104a49.907 49.907 0 0 1 8.032-6.885 86.611 86.611 0 0 1 26.391-12.813 57.821 57.821 0 0 1 30.598-.956 35.677 35.677 0 0 1 11.666 5.163c.956 2.869 2.104 5.737 3.06 8.797.405.991.725 2.015.956 3.06a5.576 5.576 0 0 0-.956-2.676zM172.805 670.289c-6.502-2.677-13.004-4.972-19.315-7.076h-.382c-5.355.383-10.901 3.442-15.682 8.606a52.699 52.699 0 0 0-11.474 21.801 62.512 62.512 0 0 0-1.721 25.052c.956 6.885 3.251 12.43 6.502 15.682a6.021 6.021 0 0 1 1.53 2.869c1.339.383 2.486.956 3.633 1.339s2.104.765 3.251 1.147l2.869 1.147c.27-.029.541.039.765.191.191.191.574.191.765.383.461.156.908.348 1.339.574.956.383 2.104.765 3.06 1.147a6.787 6.787 0 0 0 1.721.765c1.147.574 2.486.956 3.633 1.53.461.156.908.348 1.339.574l7.458 3.442c.191 0 .382.191.574.191.956.383 1.721.765 2.677 1.147a4.2 4.2 0 0 0 .956.574 62.4 62.4 0 0 1-1.147-12.43 81.462 81.462 0 0 1 6.693-28.877 61.145 61.145 0 0 1 18.168-24.287 47.818 47.818 0 0 1 7.841-4.781.191.191 0 0 0-.191-.191c-8.224-3.826-16.256-7.268-24.862-10.519z" fill="#ffb400"/><path d="M206.654 588.439a62.361 62.361 0 0 0 4.016-9.562 77.966 77.966 0 0 0 3.251-29.259 65.329 65.329 0 0 0-8.032-28.877 40.763 40.763 0 0 0-6.693-8.988 266.04 266.04 0 0 0-18.168 1.721 4.594 4.594 0 0 0 2.295 1.339c4.781 1.339 9.179 5.546 12.622 11.474a53.91 53.91 0 0 1 6.693 23.905 70.94 70.94 0 0 1-2.869 25.052c-2.104 6.502-4.972 11.474-8.223 13.769-.191.191-.191.382-.574.574a208.258 208.258 0 0 1 15.682-1.148zm-43.984 6.693v-.191a69.164 69.164 0 0 0 2.295-9.944 84.607 84.607 0 0 0-1.339-29.259 65.586 65.586 0 0 0-12.43-27.347 41.27 41.27 0 0 0-7.841-7.458c-6.12 1.53-11.857 3.251-17.211 5.163a4.498 4.498 0 0 0 1.53.383c4.972.574 10.136 3.825 14.534 9.179a54.58 54.58 0 0 1 10.136 22.566 74.09 74.09 0 0 1 1.147 25.243c-.956 6.693-2.869 12.048-5.546 14.917a5.775 5.775 0 0 0-.956 1.339c0 .191-.191.191-.191.383a154.964 154.964 0 0 1 15.872-4.974zm-42.455 17.594v-.956a63.843 63.843 0 0 0-.382-11.857 89.566 89.566 0 0 0-8.223-27.921 60.926 60.926 0 0 0-18.741-23.714 49 49 0 0 0-7.458-4.207c-4.972 2.677-9.562 5.546-14.152 8.414a21.933 21.933 0 0 1 5.928.765 29.187 29.187 0 0 1 8.797 4.398 51.286 51.286 0 0 1 15.108 19.315 82.41 82.41 0 0 1 7.076 24.287c.492 3.162.62 6.37.382 9.562a18.138 18.138 0 0 1-1.339 6.12 5.98 5.98 0 0 0-.382 3.633c0 .191.191.382.191.574a104.942 104.942 0 0 1 13.195-8.413zm-32.319 26.965c0-.383-.191-.574-.191-.956a53.003 53.003 0 0 0-4.972-13.387 93.145 93.145 0 0 0-16.829-23.714 59.205 59.205 0 0 0-25.626-16.255 25.246 25.246 0 0 0-6.12-1.339 134.21 134.21 0 0 0-9.562 11.666 23.158 23.158 0 0 1 12.43.574 47.867 47.867 0 0 1 20.654 13.195 90.937 90.937 0 0 1 14.725 20.845 52.51 52.51 0 0 1 4.016 10.709c3.825.765 6.693 1.53 7.841 1.721.246.097.503.161.765.191a9.521 9.521 0 0 1 2.869-3.25zm125.834 49.148c-.191-.191-.382-.191-.574-.383-2.295-1.339-4.781-2.486-7.267-3.825s-5.163-2.486-7.841-3.825a47.749 47.749 0 0 0-7.841 4.781 64.942 64.942 0 0 0-18.168 24.287 73.986 73.986 0 0 0-6.693 28.877 50.894 50.894 0 0 0 1.147 12.43c1.721.956 3.634 1.721 5.355 2.677l6.311 3.442a28.709 28.709 0 0 0 3.251 1.912 5.25 5.25 0 0 0-.956-3.633c-2.486-3.633-3.825-9.371-3.634-16.446a65.927 65.927 0 0 1 5.546-24.478 49.505 49.505 0 0 1 14.725-19.698 26.438 26.438 0 0 1 16.639-6.118z" fill="#04294f"/><path d="M303.994 837.622c-12.43 2.104-26.2 7.841-40.734 17.211-1.339.765-2.677 1.721-4.016 2.677 9.753 42.455-23.331 122.392-23.331 122.392l23.522 18.168-3.634 10.901 27.156 20.845c-3.442 10.327-5.737 16.638-5.737 16.638l32.893 25.243c8.606-21.61 15.49-41.69 20.845-60.24 2.869-9.944 5.355-19.506 7.458-28.686h1.53a2.271 2.271 0 0 1-1.912-2.295c.382-11.283 1.53-22.184 2.486-33.275l3.251-32.893a2.435 2.435 0 0 1 2.104-2.104 2.524 2.524 0 0 1 2.677 2.104c.632 5.65.888 11.336.765 17.02a165.714 165.714 0 0 1-.956 16.829c-.574 5.546-1.339 11.092-2.295 16.638s-2.104 10.901-3.634 16.446a2.335 2.335 0 0 1-1.721 1.53h23.714c0-52.399-4.016-81.276-8.606-100.4a66.57 66.57 0 0 1 43.769 18.141c26.735 25.243 27.945 67.381 2.701 94.116 26.739 19.84 62.463 22.662 91.985 7.267a100.721 100.721 0 0 0 11.283-7.076 68.363 68.363 0 0 0 9.753-8.606c6.885-7.267 14.152-15.108 21.419-23.905a263.573 263.573 0 0 0 39.586-65.212c1.53-3.251 2.677-6.502 3.825-9.371 1.912-5.163 3.442-9.753 4.59-13.578 2.295-7.267-3.633-14.725-12.43-15.682-14.917-1.53-39.395-3.633-69.228-4.972v1.147a9.088 9.088 0 0 1-5.737 8.797c-6.885 2.295-20.845 5.355-44.558 5.355s-37.674-3.06-44.558-5.355a8.742 8.742 0 0 1-5.737-8.797v-.956c-21.61.956-40.16 2.295-54.312 3.634-1.147-3.634-2.104-7.076-2.869-10.518 0 0-1.912-1.147-4.781-2.677-6.12-3.06-17.211-7.841-27.921-7.458-2.486.191-4.972.382-7.458.765-.389.01-.775.075-1.147.192zm105.946 54.12-.002-.041a3.426 3.426 0 0 1 3.253-3.592c6.12-.382 12.048-.574 18.168-.765s12.048-.382 18.168-.574l18.168-.765c6.12-.383 12.239-.574 18.168-.956l8.988-.574 8.988-.765c3.06-.191 5.928-.574 8.988-.765 3.06-.383 5.928-.574 8.988-.956l4.398-.574 4.398-.574c2.869-.383 5.928-.956 8.797-1.339 3.06-.382 5.928-.956 8.797-1.53a29.743 29.743 0 0 0 4.398-.956c1.339-.383 2.869-.765 4.016-1.147l.382-.191a3.477 3.477 0 0 1 4.016 1.721l.022.045a3.268 3.268 0 0 1-1.552 4.354 31.655 31.655 0 0 1-4.59 2.104c-1.339.574-2.869 1.147-4.398 1.721-3.06.956-5.928 1.912-8.988 2.677-5.928 1.53-12.048 2.869-18.168 3.825a342.685 342.685 0 0 1-36.718 4.207c-6.12.382-12.239.574-18.359.765-6.12 0-12.239.191-18.359 0s-12.239-.383-18.359-.765-12.239-.765-18.359-1.53a3.661 3.661 0 0 1-3.249-3.06zm-121.245 38.439c-.956 5.928-2.295 11.857-3.825 17.785s-3.442 11.666-5.546 17.403-4.399 11.283-7.076 16.829a109.535 109.535 0 0 1-8.797 16.064 2.365 2.365 0 0 1-2.677.765 2.274 2.274 0 0 1-1.339-2.869l6.311-16.638c2.104-5.737 4.207-11.283 6.12-16.829 1.912-5.546 4.016-11.283 5.928-16.829 2.104-5.546 4.016-11.283 6.12-16.829a2.133 2.133 0 0 1 2.486-1.53 3.086 3.086 0 0 1 2.295 2.678zm2.104 75.921c2.677-7.649 5.163-15.49 7.458-22.948 5.163-15.49 10.136-31.172 15.299-46.662a2.344 2.344 0 0 1 2.677-1.53 2.245 2.245 0 0 1 1.913 2.677c-1.53 8.032-3.251 16.064-5.355 24.096s-4.59 15.873-7.076 23.714c-2.677 7.649-5.546 15.49-8.606 23.14s-6.311 15.108-10.136 22.566a2.214 2.214 0 0 1-2.677 1.147 2.274 2.274 0 0 1-1.339-2.869z" fill="#f04e23"/><path d="M603.473 346.523a23.894 23.894 0 0 0 6.885-2.869l1.721-22.949a24.524 24.524 0 0 1-7.076 2.677c-3.634.765-7.267 1.912-11.666 3.06-3.442.956-7.076 2.104-11.283 3.06v22.757c3.442-.956 6.311-1.721 9.179-2.486 4.399-1.146 8.224-2.294 12.24-3.25zm-76.878 14.343a305.882 305.882 0 0 0 47.809-6.693v-22.949a307.884 307.884 0 0 1-47.236 6.502c-1.721.191-3.442.191-5.163.382v22.949c1.53 0 3.06-.191 4.59-.191zm-12.239.765v-22.949c-9.179.382-18.933.574-29.259.574-7.458 0-15.108-.191-23.14-.382v22.949c19.124.381 36.718.381 52.399-.192z" fill="#04294f"/><path d="M605.003 354.172a20.808 20.808 0 0 0 4.59-1.339l.765-8.988a23.95 23.95 0 0 1-6.885 2.869c-4.016.765-7.841 1.912-12.239 3.06-2.869.765-5.928 1.721-9.179 2.486v-22.757c4.207-1.147 7.841-2.104 11.283-3.06 4.398-1.339 8.032-2.295 11.666-3.06a31.692 31.692 0 0 0 7.076-2.677l.765-9.753a21.909 21.909 0 0 1-9.371 4.781c-4.016.765-7.841 1.912-12.239 3.06-2.869.765-5.928 1.721-9.179 2.486v-14.534c-2.295.574-4.781 1.339-7.65 1.912v14.534a305.882 305.882 0 0 1-47.809 6.693c-1.53 0-3.06.191-4.59.191v-14.152c-2.486 0-4.972.191-7.649.382v14.152c-15.682.765-33.275.956-52.399.382v-13.387c-2.486-.191-5.163-.191-7.65-.191v13.387c-12.43-.382-24.478-1.147-35.379-1.912-1.339-.191-2.486-.191-3.634-.382a36.723 36.723 0 0 0-1.721 7.65c1.721.191 3.251.191 4.781.382 11.283.765 23.331 1.53 35.953 1.912v23.14c-12.43-.382-24.478-1.147-35.379-1.912a47.023 47.023 0 0 1-5.355-.382 48.357 48.357 0 0 0 1.147 7.841c1.201.212 2.415.34 3.634.382 11.283.765 23.331 1.53 35.953 1.912v15.873c2.486.191 4.972.191 7.65.191v-15.681c8.032.191 15.681.382 23.14.382 10.327 0 20.08-.191 29.259-.574v14.917c2.677-.191 5.163-.382 7.649-.574v-14.917c1.721-.191 3.442-.191 5.163-.382a342.603 342.603 0 0 0 47.236-6.502v13.96c1.339-.382 2.677-.574 4.016-.956 1.147-.382 2.486-.574 3.634-.956v-13.769c4.207-1.147 7.841-2.104 11.283-3.06 4.206-1.147 8.03-2.295 11.664-3.06zm-90.647-15.681v22.757c-15.681.765-33.275.956-52.399.382v-22.949c8.032.191 15.682.382 23.14.382 10.326.002 20.08-.19 29.259-.572zm60.049-7.267v22.949a305.882 305.882 0 0 1-47.809 6.693c-1.53 0-3.06.191-4.59.191v-22.949c1.721-.191 3.442-.191 5.163-.382a342.603 342.603 0 0 0 47.236-6.502z" fill="#ffb400"/><g fill="#04294f"><path d="M590.278 380.372a71.144 71.144 0 0 0 17.02-7.267c.383-.191.765-.574 1.147-.765l1.53-19.315a41.558 41.558 0 0 1-4.59 1.339c-3.634.765-7.267 1.912-11.666 3.06-3.442.956-7.076 2.104-11.283 3.06v13.769c-1.147.382-2.295.574-3.633.956a30.57 30.57 0 0 0-4.016.956v-13.96a307.9 307.9 0 0 1-47.236 6.502c-1.721.191-3.442.191-5.163.382v14.917c-2.486.191-4.972.382-7.65.574v-14.917c-9.179.383-18.933.574-29.259.574-7.458 0-15.108-.191-23.14-.382v15.682c-2.486-.191-5.163-.191-7.65-.191v-15.873c-12.622-.382-24.861-1.147-35.953-1.912-1.339-.191-2.486-.191-3.634-.382-.597-2.578-.98-5.2-1.147-7.841 1.721 0 3.442.191 5.355.382 11.092.956 22.949 1.53 35.379 1.912v-23.14c-12.622-.382-24.861-1.147-35.953-1.912-1.721-.191-3.251-.191-4.781-.382.37-2.591.946-5.149 1.721-7.65 1.201.212 2.415.34 3.634.382 11.092.956 22.949 1.53 35.379 1.912v-13.387c2.486.191 4.972.191 7.65.191v13.387c19.315.382 36.718.382 52.399-.382v-14.152c2.486 0 5.163-.191 7.649-.382v14.152a36.843 36.843 0 0 0 4.59-.191 305.882 305.882 0 0 0 47.809-6.693v-14.534c2.677-.765 5.355-1.339 7.65-1.912v14.534c3.442-.956 6.311-1.721 9.179-2.486 4.59-1.147 8.414-2.295 12.239-3.06a21.914 21.914 0 0 0 9.371-4.781l1.721-22.184c-.383.191-.765.574-1.147.765-4.781 2.677-20.08 6.885-23.713 7.65-12.43 2.295-26.2 7.841-62.535 10.709-14.343 1.147-32.51 1.912-55.459 1.912-12.622 0-23.713-.191-33.658-.574h-.191a14.431 14.431 0 0 0-2.869-.191c-30.598-.574-29.642 27.347-29.642 39.013 0 11.474-.956 41.307 28.686 43.793 1.721 0 3.442.191 5.355.191 9.371.382 20.08.574 32.128.574 22.949 0 40.925-.765 55.459-1.912 36.144-2.87 50.105-8.225 62.918-10.52z"/><ellipse cx="333.828" cy="145.914" rx="15.108" ry="19.698"/><path d="M318.337 111.492a3.881 3.881 0 0 0-.382-5.355l-76.113-69.993a3.79 3.79 0 0 0-5.164 5.546l73.244 67.507-8.414 9.753-33.084-32.319a3.786 3.786 0 0 0-5.354 5.355l36.144 35.188a3.771 3.771 0 0 0 2.677 1.147h.191a4.014 4.014 0 0 0 2.677-1.339zM1.265 671.819a44.134 44.134 0 0 0 3.06 10.901 47.17 47.17 0 0 0 5.546 10.136c.956 1.53 2.295 3.06 3.442 4.59a41.995 41.995 0 0 0 3.825 4.398 92.133 92.133 0 0 0 18.359 13.769 138.555 138.555 0 0 0 20.271 9.371c3.251 1.339 6.693 2.677 10.136 3.825 3.442 1.339 6.885 2.295 10.327 3.442l20.271 6.311c13.387 4.016 26.582 8.032 39.395 13.004 6.502 2.295 12.813 4.781 19.124 7.458s12.43 5.737 18.359 8.797a159.674 159.674 0 0 1 17.594 9.944 51.283 51.283 0 0 1 4.207 2.677c1.53.956 2.869 1.912 4.207 2.869 1.339.765 2.677 1.912 4.016 2.869 1.339.956 2.677 1.912 4.016 3.06a198.981 198.981 0 0 1 15.299 13.195 171.754 171.754 0 0 1 13.96 14.917 280.459 280.459 0 0 1 24.478 34.04c0 .191.191.191.382.191.191-.191.191-.191.191-.383.574 1.53 1.147 2.869 1.721 4.398 14.343-9.371 28.112-15.108 40.734-17.211.574 0 .956-.191 1.53-.191 2.486-.382 4.972-.574 7.458-.765 10.709-.574 21.801 4.207 27.921 7.458a17.839 17.839 0 0 0-.765-3.06c-.956-2.869-1.912-5.928-3.06-8.797a42.565 42.565 0 0 0-11.666-5.163 57.821 57.821 0 0 0-30.598.956 86.634 86.634 0 0 0-26.391 12.813 49.907 49.907 0 0 0-8.032 6.885c.288.624.543 1.262.765 1.912-.574-1.53-1.147-2.869-1.721-4.207l-.574-1.147a197.478 197.478 0 0 0-17.403-30.981 216.704 216.704 0 0 1 6.311 9.753 5.082 5.082 0 0 0 2.104-4.207c.179-2.17.695-4.3 1.53-6.311a48.311 48.311 0 0 1 4.59-8.606 71.92 71.92 0 0 1 17.02-18.741 45.982 45.982 0 0 1 22.375-9.753 25.755 25.755 0 0 1 10.136.574 20.836 20.836 0 0 1 4.781 1.912c-1.721-2.486-3.251-4.972-4.972-7.458-1.53-2.295-3.06-4.398-4.781-6.693a34.844 34.844 0 0 0-6.311.191 56.606 56.606 0 0 0-28.112 12.048 85.154 85.154 0 0 0-19.889 21.61 64.13 64.13 0 0 0-5.546 10.709 23.1 23.1 0 0 0-.956 2.677l1.721 2.295c-.765-1.147-1.721-2.295-2.486-3.442a38.692 38.692 0 0 0-2.486-3.442c-1.147-1.53-2.486-3.06-3.633-4.59a16.753 16.753 0 0 0-1.53-1.912c-.956-.956-1.721-2.104-2.677-3.06-.574-.765-1.339-1.339-1.912-2.104-1.147-1.339-2.486-2.486-3.633-3.825a36.848 36.848 0 0 0-2.677-2.869l-2.104-2.104 1.147 1.147a6.118 6.118 0 0 0 .574-5.163c-1.339-3.825-1.339-9.562.382-16.446a68.377 68.377 0 0 1 10.518-22.949 50.01 50.01 0 0 1 18.359-16.255A25.603 25.603 0 0 1 264.6 724.6a339.827 339.827 0 0 0-12.813-10.518 47.2 47.2 0 0 0-7.267 2.677 59.681 59.681 0 0 0-22.949 20.08 79.022 79.022 0 0 0-12.239 26.773 47.15 47.15 0 0 0-1.721 13.96c2.677 2.104 5.163 4.398 7.65 6.693-.765-.574-1.339-1.339-2.104-1.912a207.984 207.984 0 0 0-49.913-32.128c-.191 0-.382-.191-.574-.191l-7.458-3.442a9.304 9.304 0 0 1-1.339-.574c-1.147-.574-2.486-.956-3.634-1.53a6.787 6.787 0 0 0-1.721-.765c-.956-.383-2.104-.765-3.06-1.147a9.304 9.304 0 0 1-1.339-.574c-.574-.191-.956-.382-1.53-.574l-2.869-1.147c-1.147-.383-2.104-.765-3.251-1.147-1.912-.765-4.016-1.339-5.928-2.104.765.191 1.53.574 2.295.765a6.017 6.017 0 0 0-1.53-2.869c-3.251-3.251-5.546-8.797-6.502-15.682a62.295 62.295 0 0 1 1.721-25.052 50.573 50.573 0 0 1 11.474-21.801c4.781-5.163 10.327-8.223 15.682-8.606h.383c-5.928-2.104-11.666-3.825-17.211-5.546a44.004 44.004 0 0 0-7.267 6.311 63.308 63.308 0 0 0-14.152 26.582 74.706 74.706 0 0 0-2.104 29.642 50.352 50.352 0 0 0 3.06 11.474c.765.191 1.339.382 2.104.574-6.12-1.912-12.43-3.825-18.55-5.546-.382 0-.574-.191-.956-.191-.382-.191-.956-.191-1.339-.382-2.486-.574-5.163-1.339-7.841-2.104-3.251-.765-6.693-1.721-9.944-2.677a12.348 12.348 0 0 0-2.486-.765c.382.191.956.191 1.339.383-.191-.382-.574-.574-.765-.765-3.634-2.677-6.502-8.032-8.414-14.725a60.77 60.77 0 0 1-1.339-25.052 53.264 53.264 0 0 1 8.797-23.14 24.769 24.769 0 0 1 14.343-10.518 5.26 5.26 0 0 0 2.869-1.53c-3.442-1.147-6.885-2.104-9.944-3.06 0 0-2.486-.574-6.885-1.53a43.847 43.847 0 0 0-9.753 9.944 63.308 63.308 0 0 0-10.901 28.112 73.068 73.068 0 0 0 1.53 29.642 61.116 61.116 0 0 0 2.486 7.076 10.8 10.8 0 0 0-2.295-.765c-.191-.191-.191-.191-.382-.191-1.339-.383-2.486-.765-3.634-1.147-.574-.191-.956-.382-1.53-.574-1.912-.574-3.634-1.339-5.355-1.912-.956-.383-1.721-.765-2.677-1.147-.765-.383-1.721-.765-2.486-1.147-.956-.383-1.721-.765-2.677-1.147a5.727 5.727 0 0 0-1.53-.765c-.191-.191-.574-.191-.765-.383a88.69 88.69 0 0 1-17.02-10.901A60.818 60.818 0 0 1 7.003 679.66a51.566 51.566 0 0 1-5.355-14.917 44.647 44.647 0 0 1-.765-4.972v-.191a.665.665 0 0 0-.382-.191.41.41 0 0 0-.382.383 34.161 34.161 0 0 0 1.146 12.047zm126.599 64.064c-2.486-.956-4.972-1.721-7.458-2.486 2.486.765 4.972 1.53 7.458 2.486zm435.449-474.27a294.273 294.273 0 0 0 46.853-9.562 14.726 14.726 0 0 0 10.518-12.813 389.814 389.814 0 0 0 .765-47.618 14.842 14.842 0 0 0-.364-2.517c-1.862-7.971-9.833-12.923-17.804-11.061a376.496 376.496 0 0 1-37.865 6.885 700.652 700.652 0 0 1-73.818 5.355c-8.797.191-17.403.382-25.435.382-10.901 0-21.227-.191-30.789-.574a15.445 15.445 0 0 0-.43-.017c-8.124-.193-14.866 6.235-15.06 14.359a406.177 406.177 0 0 0 1.721 48.383 14.944 14.944 0 0 0 13.96 13.387c10.136.574 21.419.765 33.467.765 7.65 0 15.873-.191 24.478-.382 26.583-.764 50.105-2.486 69.803-4.972zm-82.615-31.745c0 8.223 0 26.008-19.124 26.008s-19.124-17.785-19.124-26.008 0-26.008 19.124-26.008 19.124 17.785 19.124 26.008zm82.997-4.016a5.547 5.547 0 0 1 0-8.032c4.398-4.398 8.797-8.606 13.578-12.813 2.295-2.104 4.59-4.016 7.076-6.12 2.486-1.912 4.781-3.825 7.458-5.737a3.8 3.8 0 0 1 4.016 0l.044.032a3.397 3.397 0 0 1 .721 4.749c-1.721 2.486-3.825 4.972-5.737 7.458-1.912 2.295-4.016 4.781-6.12 7.076-2.486 2.677-4.781 5.355-7.267 7.841l.191.191c2.486 1.339 4.972 2.486 7.458 3.825 2.486 1.147 4.781 2.677 7.267 4.016 2.295 1.53 4.781 2.869 7.076 4.59a3.659 3.659 0 0 1 1.339 3.825l-.002.007a3.522 3.522 0 0 1-4.206 2.67c-2.677-.765-5.355-1.53-8.032-2.486s-5.163-1.912-7.841-2.869c-2.677-.956-5.163-2.104-7.841-3.06l-7.649-3.442a3.451 3.451 0 0 1-1.529-1.721z"/><path d="M622.164 153.293c7.06-1.207 13.761 3.538 14.967 10.598.191 1.339.382 2.486.574 3.825-.383-2.869-.574-10.136-5.737-16.829l8.988-10.709c9.423-11.327 7.973-28.129-3.251-37.674L517.798 1.147A5.742 5.742 0 0 0 514.356 0h-15.681c-5.546 0-8.988.574-12.048 4.016l-9.179 10.709a12.915 12.915 0 0 0 .382 17.403l6.311 6.693c43.028 2.104 104.798 17.403 126.408 101.165a38.083 38.083 0 0 0-14.152.765 293.243 293.243 0 0 1-56.033 10.709 707.224 707.224 0 0 1-71.905 3.251c-27.156 0-49.148-.956-66.933-2.677a26.806 26.806 0 0 0-8.606-27.347l-39.777-33.658-80.894-68.272a5.735 5.735 0 0 0-3.442-1.147h-15.682c-5.546 0-8.988.574-12.048 4.016l.028-.033a5.134 5.134 0 0 1 7.239-.541l117.803 99.252c11.224 9.545 12.674 26.347 3.251 37.674l-13.578 16.255a25.241 25.241 0 0 1-25.626 8.414l.574.956a23.966 23.966 0 0 0 21.036 12.813 25.657 25.657 0 0 0 19.506-9.179l3.825-4.59a291.376 291.376 0 0 0 0 38.821c1.53 32.319.574 52.59 11.666 59.857 18.933 12.43 85.292 13.387 143.237 6.502 39.013-4.59 72.479-15.681 30.216-11.283-36.909 3.825-124.305 9.179-150.313 0h-.191l.191.191a12.622 12.622 0 0 1-4.59-6.885c0-.382-.191-.956-.191-1.339v-.191a413.004 413.004 0 0 1-2.862-90.344c.601-7.211 6.934-12.569 14.145-11.968a670.774 670.774 0 0 0 74.583 1.53 681.533 681.533 0 0 0 71.905-5.163c2.869-.382 5.737-.765 8.414-1.147.956-.191 1.721-.191 2.677-.382 1.721-.382 3.634-.574 5.355-.956 2.295-.382 4.207-.765 6.311-1.147.574-.191 1.339-.191 1.912-.382 1.912-.382 3.442-.765 5.163-1.147a.703.703 0 0 1 .574-.191c4.972-.956 9.371-2.104 13.387-3.251.956-.191 1.912-.574 2.869-.765.956-.191 1.912-.574 2.869-.765h.191c.956-.191 1.721-.574 2.486-.765l5.163-1.721c.608-.201 1.23-.355 1.862-.463zm-79.122 554.861a3.55 3.55 0 0 0 1.339-.383 8.329 8.329 0 0 0 1.339-.765c.428-.26.814-.583 1.147-.956a6.944 6.944 0 0 0 2.295-5.355 7.556 7.556 0 0 0-2.295-5.355 5.058 5.058 0 0 0-1.147-.956 3.09 3.09 0 0 0-1.339-.765 12.236 12.236 0 0 0-1.339-.383 8.242 8.242 0 0 0-3.06 0 4.48 4.48 0 0 0-1.53.383 4.776 4.776 0 0 0-1.339.765c-.428.26-.814.583-1.147.956a6.944 6.944 0 0 0-2.295 5.355 7.556 7.556 0 0 0 2.295 5.355c.383.383.765.574 1.147.956.402.326.854.584 1.339.765.574.191.956.191 1.53.383a6.216 6.216 0 0 0 3.06 0zm-114.36 23.713a7.726 7.726 0 0 0-15.107 3.251 7.571 7.571 0 0 0 7.458 6.12 4.767 4.767 0 0 0 1.53-.191 7.842 7.842 0 0 0 6.119-9.18zm80.511 10.136a7.667 7.667 0 0 0 .765 15.299h.765l.076-.008a7.688 7.688 0 1 0-1.606-15.291zm26.773-16.638a7.634 7.634 0 0 0-3.251 14.917 5.291 5.291 0 0 0 1.721.191 7.554 7.554 0 0 0 7.458-5.928 7.814 7.814 0 0 0-5.928-9.18zm-84.145 25.817a7.65 7.65 0 1 0-8.032 7.267h.382a7.593 7.593 0 0 0 7.65-7.267zm17.403.574a7.674 7.674 0 0 0 7.65 7.65h.191a7.746 7.746 0 0 0-.191-15.491 7.841 7.841 0 0 0-7.65 7.841zm-49.722-44.941a6.944 6.944 0 0 0 2.295-5.355 8.035 8.035 0 0 0-2.295-5.355c-.383-.383-.765-.574-1.147-.956a4.776 4.776 0 0 0-1.339-.765c-.574-.191-.956-.191-1.53-.383a7.594 7.594 0 0 0-6.885 2.104 6.944 6.944 0 0 0-2.295 5.355 8.448 8.448 0 0 0 2.295 5.355 6.944 6.944 0 0 0 5.355 2.295 4.22 4.22 0 0 0 1.53-.191 3.605 3.605 0 0 0 1.53-.383c.383-.191.956-.574 1.339-.765.333-.373.72-.696 1.147-.956zm-7.138 181.195a2.706 2.706 0 0 0-1.85 3.35 3.318 3.318 0 0 0 3.06 3.251c6.12.574 12.239 1.147 18.359 1.53s12.239.574 18.359.765h18.359c6.12-.191 12.239-.382 18.359-.765a342.685 342.685 0 0 0 36.718-4.207c6.12-.956 12.048-2.295 18.168-3.825 3.06-.765 5.928-1.721 8.988-2.677 1.339-.574 2.869-1.147 4.398-1.721 1.53-.765 2.869-1.339 4.59-2.104a3.213 3.213 0 0 0 1.53-4.398 3.477 3.477 0 0 0-4.016-1.721l-.382.191c-1.147.383-2.677.765-4.016 1.147-1.445.41-2.914.729-4.398.956-2.869.574-5.928.956-8.797 1.53s-5.737.956-8.797 1.339l-4.398.574-4.398.574c-3.06.383-5.928.765-8.988.956s-5.928.574-8.988.765l-8.988.765-8.988.574c-6.12.574-12.048.574-18.168.956l-18.168.765c-6.12.191-12.048.382-18.168.574-6.12.191-12.239.382-18.359.765a2.684 2.684 0 0 0-1.021.091zm-128.067 59.956a140.193 140.193 0 0 0 3.825-17.785 2.245 2.245 0 0 0-1.913-2.678 2.32 2.32 0 0 0-2.486 1.53c-2.295 5.546-4.207 11.283-6.12 16.829-1.912 5.546-3.825 11.283-5.928 16.829-1.912 5.737-4.016 11.283-6.12 16.829l-6.311 16.638a2.274 2.274 0 0 0 1.339 2.869 2.365 2.365 0 0 0 2.677-.765 130.974 130.974 0 0 0 8.797-16.064c2.677-5.546 4.972-11.092 7.076-16.829 1.913-5.738 3.825-11.475 5.164-17.403zm29.642-11.666c-5.355 15.49-10.136 31.172-15.108 46.28-2.486 7.841-5.163 15.49-7.65 23.331l-7.841 23.331a2.274 2.274 0 0 0 1.339 2.869 2.294 2.294 0 0 0 2.677-1.147c3.633-7.458 7.076-14.917 10.136-22.566 3.251-7.65 5.928-15.299 8.606-23.14 2.486-7.841 4.972-15.681 7.076-23.713 2.104-7.841 3.825-16.064 5.355-24.096a2.377 2.377 0 0 0-4.59-1.149zm171.923-415.751c6.12 0 12.43-.382 18.55-.574 6.12-.383 12.239-.765 18.359-1.339 12.239-1.147 24.478-2.486 36.526-4.207a1105.304 1105.304 0 0 0 36.335-5.737c5.928-.956 12.048-2.295 17.976-3.442 6.12-1.339 12.048-2.486 17.976-4.016a3.442 3.442 0 0 0 2.486-4.016 3.205 3.205 0 0 0-3.634-2.486l-17.976 2.486-18.168 2.295c-12.048 1.53-24.096 2.869-36.144 4.207a1152.551 1152.551 0 0 1-36.144 3.442c-6.12.383-12.239.765-18.168 1.147-5.928.191-11.857.574-17.976.574-24.096.383-48.383-.765-72.67-1.912-24.287-1.339-48.574-2.869-72.862-4.781a3.601 3.601 0 0 0-3.825 3.251 3.7 3.7 0 0 0 3.06 3.634c24.287 3.442 48.574 5.928 72.862 8.032 12.239.956 24.478 1.912 36.718 2.486 6.12.382 12.239.574 18.359.765 6.312.191 12.431.191 18.36.191zm-146.871 83.763a53.74 53.74 0 0 1-7.076 18.933 6.666 6.666 0 0 0 3.825 9.753c3.251.956 6.12 1.721 8.414 2.486a6.739 6.739 0 0 0 7.267-2.486 60.237 60.237 0 0 0 10.901-26.773 6.464 6.464 0 0 0-5.929-7.459 45.516 45.516 0 0 0-11.474 0 7.106 7.106 0 0 0-5.928 5.546zm27.729 25.243a7.696 7.696 0 0 0 4.398 11.475c3.825 1.147 7.267 2.295 9.944 3.06a7.53 7.53 0 0 0 8.606-2.869 71.126 71.126 0 0 0 12.813-31.746 7.841 7.841 0 0 0-7.076-8.797 76.88 76.88 0 0 0-13.578.191 7.719 7.719 0 0 0-6.885 6.311 61.002 61.002 0 0 1-8.222 22.375zm204.051 4.398a6.446 6.446 0 0 0 8.032 9.37c6.12-2.869 12.048-5.355 14.725-6.502a6.208 6.208 0 0 0 2.486-1.912c7.65-9.753 8.988-18.933 9.944-27.347l.011-.123a6.466 6.466 0 0 0-5.939-6.953 37.847 37.847 0 0 0-14.534 1.339 6.443 6.443 0 0 0-4.398 5.163c-2.295 12.623-3.442 15.682-10.327 26.965zm40.925-7.458a5.369 5.369 0 0 0 6.693 7.84c5.355-2.295 10.136-4.398 12.43-5.355a5.43 5.43 0 0 0 2.104-1.53c6.311-8.032 7.458-15.681 8.223-22.757a5.293 5.293 0 0 0-4.972-5.928 34.378 34.378 0 0 0-12.048 1.147 5.45 5.45 0 0 0-3.634 4.207c-1.911 10.328-2.867 13.006-8.796 22.376z"/></g><path d="M484.324 237.805c1.507-.329 1.945-.274 2.416-.561 3.723-2.271 5.857-3.47 5.34-8.142-1.144-10.342-3.644-20.973-5.283-31.347a.938.938 0 0 0-.101-.312c-.397-.715-.96-1.221-1.788-1.196-.829.025-1.077.537-1.416 1.19-.022.043-.015.079-.03.139-1.942 8.024-3.989 15.927-6.64 23.804-2.134.458-6.951 1.538-8.502 1.872-1.551.333-1.936.444-2.423.633-3.951 1.539-5.646 4.351-5.183 8.218.771 6.439 3.752 17.131 4.772 22.003 1.021 4.871.941 4.365 1.726 7.574.558 2.282.885.832 2.286 1.779.114.077.145-.003.235-.093.871-.877 1.155-.323 1.492-1.84.577-2.596.612-2.986 1.424-6.577.811-3.591 2.24-11.159 3.458-15.477 2.053-.748 6.71-1.338 8.217-1.667zm98.034-8.229c1.512-.252 1.897-.463 2.387-.61 3.882-1.163 5.655-4.343 5.382-7.882-.551-7.135-3.503-20.727-4.316-25.662s-.472-2.923-.938-5.282c-.466-2.358-.459-1.692-1.912-1.814s-.977-.16-1.589 1.579c-.612 1.74-.237.968-1.273 4.525-1.036 3.556-3.548 13.635-5.16 18.375-2.126 1.062-7.013 1.823-8.584 2.213-1.57.391-1.954.402-2.438.633-3.927 1.871-5.656 4.095-5.187 8.291.65 5.794 3.051 13.861 4.07 18.805s1.506 6.811 2.482 10.885c.404 1.685 1.019 1.048 2.237 1.589.099.044.163-.027.247-.087.807-.582 1.224-.597 1.46-1.732.707-3.408 1.273-6.181 2.122-9.875.849-3.693 1.698-8.541 2.817-12.437 2.062-.455 6.682-1.262 8.193-1.514z" fill="#ffb400"/></svg></g><g transform="translate(856.0 241.0) rotate(10.830945597303689 240.0 432.5) scale(0.6588329597658946 0.6581610447792992)"><svg width="728.561" height="1314.268" viewBox="0 0 728.561 1314.268"><path d="M612.805 995.709s10.328 15.813 10.328 96.056-10.328 91.926-10.328 91.926-117.626 96.813-207.512 130.577c.295-.361 10.328-12.906 10.328-91.91 0-80.24-10.328-96.056-10.328-96.056zm0 0-207.534 130.592s-34.086-22.609-188.05-69.779-188.047-45.912-188.047-45.912 98.12-79.844 207.534-130.596c0 0 34.102-1.267 188.05 45.922s188.047 69.773 188.047 69.773z" fill="#10294c"/><path d="M405.271 1126.301s10.328 15.816 10.328 96.056c0 79.005-10.037 91.549-10.328 91.91s-68.153-5.283-188.05-42.916-188.047-72.756-188.047-72.756-10.328-28.912-10.328-97.092 10.328-90.894 10.328-90.894 34.086-1.267 188.047 45.922 188.05 69.77 188.05 69.77zm195.527-940.979c-.081-11.48 2.024-27.33-2.554-38.94-23.523-59.65-140.413-102.137-287.972-99.963C161.88 48.593 31.765 97.096 23.871 162.371c-1.253 10.364-.955 18.095-.792 28.722.366 23.855 1.118 49.112 1.768 75.791 1.768 72.601 9.208 154.451 32.308 254.093 19.568 84.406 116.088 191.281 188.99 214.003.071.022.148.024.221.037 12.32 2.042 21.96 11.76 23.735 24.122 2.786 19.403 6.38 38.717 7 58.307.892 28.161-5.563 58.531-25.737 77.307-13.665 12.718-45.985 23.526-78.84 51.775-18.725 16.1-19.742 59.294 177.158 104.496 112.32 25.335 181.267-45.364 86.486-90.724-39.102-26.371-55.143-78.057-58.261-126.459-1.348-20.927-.826-41.947-.299-62.954.355-14.154 10.9-26.104 24.947-27.878 54.206-6.848 111.521-66.035 135.384-104.023 60.477-96.273 64.464-193.128 62.859-453.664z" fill="#ffb400"/><ellipse cx="314.253" cy="155.394" fill="#10294c" rx="265.472" ry="95.94"/><path d="M601.096 1016.039c.864 2.251-8.966 8.145-24.705 17.353-7.904 4.542-17.219 10.105-27.578 16.199-10.306 6.207-21.588 13.081-33.346 20.447a2219.198 2219.198 0 0 0-32.836 21.258c-9.971 6.711-19.008 12.716-26.521 17.882-15.103 10.22-24.667 16.537-26.323 14.786-1.551-1.625 5.276-11.171 18.834-24.071 6.731-6.497 15.236-13.651 24.96-21.235 9.788-7.489 20.885-15.278 32.891-22.892 12.047-7.548 23.867-14.19 34.845-19.792 11.042-5.495 21.164-10.082 29.933-13.345 17.491-6.659 29.051-8.69 29.846-6.59zM569.95 374.092c15.658-18.584 44.604-22.638 66.706-12.536s37.314 32.054 43.402 55.58 3.961 48.499-1.462 72.187c-5.477 23.924-14.594 47.626-30.891 65.977s-40.686 30.669-65.088 28.039-47.141-22.647-48.628-47.145zm-456.153-81.098c-15.658-18.584-44.604-22.638-66.706-12.536s-37.314 32.054-43.402 55.58-3.961 48.499 1.462 72.187c5.477 23.924 14.594 47.626 30.891 65.977s40.686 30.669 65.088 28.039 47.141-22.647 48.628-47.145z" fill="#ffb400"/><path d="M639.996 433.538c-2.169-10.214-7.691-21.816-18.063-23.028-7.129-.833-13.96 3.987-17.67 10.132-3.71 6.144-4.937 13.423-6.093 20.507l-6.571 40.237c-2.368 14.5-3.75 31.883 7.481 41.352 40.318 33.992 44.69-71.424 40.916-89.2z" fill="#10294c"/><g fill="#fff"><ellipse cx="668.714" cy="106.186" rx="16.87" ry="59.846"/><ellipse cx="668.714" cy="106.186" rx="59.847" ry="16.87"/><ellipse cx="565.157" cy="29.923" rx="8.435" ry="29.923"/><ellipse cx="565.157" cy="29.923" rx="29.923" ry="8.435"/><ellipse cx="555.235" cy="201.689" rx="8.435" ry="29.923"/><ellipse cx="555.235" cy="201.689" rx="29.923" ry="8.435"/></g><ellipse cx="37.513" cy="390.849" fill="#04294f" rx="6.326" ry="74.028" transform="matrix(.9958 -.0919 .0919 .9958 -35.7763 5.1044)"/><path d="M217 1147.684a184.197 184.197 0 0 0-1.286-14.556c-1.186-9.214-2.936-17.359-4.91-24.106s-4.186-12.087-6.359-15.656c-1.664-2.731-3.3-4.413-4.817-4.926a6.122 6.122 0 0 0-2.241-.644c-.948-.083-1.897.04-2.831.305-.467.133-.93.302-1.386.5-.229.099-.452.206-.682.319-.233.113-.464.233-.694.359-.461.252-.908.528-1.357.824-.464.297-.919.613-1.362.948-.449.334-.921.687-1.361 1.055l-.685.565c-.23.192-.456.388-.678.588a70.013 70.013 0 0 0-5.617 5.559 88.478 88.478 0 0 0-2.959 3.372 103.44 103.44 0 0 0-3.03 3.745 104.124 104.124 0 0 0-2.93 3.85 90 90 0 0 0-2.598 3.72c-1.61 2.404-2.951 4.678-4.034 6.838-1.081 2.148-1.922 4.201-2.453 6.18-.259 1.017-.441 1.967-.489 2.942-.048.967.037 1.922.321 2.83.285.908.76 1.727 1.455 2.436.69.703 1.625 1.326 2.737 1.744.557.212 1.183.405 1.837.531.652.125 1.355.211 2.107.256.735.03 1.51.014 2.332-.043.804-.07 1.638-.192 2.513-.355 3.441-.688 7.207-2.253 10.825-4.608a41.827 41.827 0 0 0 4.132-3.109c-.057 1.74-.11 3.507-.16 5.316-.235 8.702-.447 18.116-.789 28.019-.34 9.906-.748 19.406-1.022 28.14a668.994 668.994 0 0 0-.285 12.441c-.054 3.905-.051 7.569.006 10.902.058 3.337.173 6.358.352 9.024.18 2.667.416 4.971.739 6.901.167.972.34 1.832.554 2.617.209.777.435 1.454.711 2.054.521 1.163 1.199 1.998 2.081 2.355.882.356 1.933.211 3.156-.495a10.601 10.601 0 0 0 1.874-1.451 19.603 19.603 0 0 0 1.971-2.22c1.332-1.725 2.685-3.926 3.991-6.526 1.308-2.601 2.58-5.604 3.79-8.95 1.212-3.349 2.353-7.025 3.42-11.014a179.824 179.824 0 0 0 2.895-12.817 199.347 199.347 0 0 0 3.33-30.02 191.09 191.09 0 0 0-.114-15.739z" fill="#04294f"/><path d="M665.929 466.69c-2.333-.741-1.869-7.623-2.399-17.688-.284-5.033-.884-10.866-2.404-17.078-1.457-6.214-3.876-12.815-7.271-19.383-3.459-6.618-7.475-12.698-11.493-17.77a86.53 86.53 0 0 0-11.791-12.343c-3.682-3.157-7.007-5.273-9.442-6.859-1.206-.875-2.206-1.471-2.881-2.141-.676-.653-1.037-1.279-.985-1.859.053-.58.52-1.087 1.422-1.513.896-.409 2.254-.833 3.967-.875 3.45-.255 8.532.522 14.092 3.039 5.549 2.495 11.609 6.571 17.147 12.125 5.582 5.543 10.74 12.4 14.938 20.424 4.201 8.102 6.75 16.636 7.621 24.543.944 7.908.274 15.085-1.043 20.813-1.326 5.747-3.234 10.094-5.002 12.876-1.801 2.78-3.382 4.041-4.476 3.689zM161.175 649.486c-.322.485-1.139.608-2.421.382-1.275-.234-3.058-.771-5.146-1.783-4.241-1.938-9.964-5.501-16.281-10.769-6.323-5.256-13.263-12.17-20.164-20.471a221.62 221.62 0 0 1-10.247-13.445 249.099 249.099 0 0 1-9.822-15.245 243.026 243.026 0 0 1-8.53-16.021 212.69 212.69 0 0 1-6.708-15.559c-3.809-10.132-6.397-19.591-7.792-27.683-1.4-8.094-1.762-14.757-1.421-19.381.313-4.624 1.193-7.193 2.325-7.313 2.442-.244 5.113 9.205 10.603 23.551 2.731 7.186 6.27 15.589 10.587 24.739a426.356 426.356 0 0 0 7.157 14.193 492.777 492.777 0 0 0 8.325 14.93 520.1 520.1 0 0 0 8.986 14.559 469.7 469.7 0 0 0 8.883 13.229 374.313 374.313 0 0 0 16.252 21.48c9.669 11.903 16.733 18.531 15.414 20.607zm31.086-384.63c-.003 1.141-2.406 2.274-6.862 3.075-4.453.828-10.961 1.168-18.979.623-8.018-.527-17.49-2.166-27.71-5.004a189.166 189.166 0 0 1-15.739-5.269 219.596 219.596 0 0 1-16.275-7.127 227.352 227.352 0 0 1-15.551-8.542 204.168 204.168 0 0 1-13.773-9.146c-8.526-6.228-15.672-12.63-21.127-18.557-5.467-5.92-9.189-11.398-11.215-15.499-1.058-2.014-1.625-3.754-1.878-5.002-.247-1.255-.137-2.061.34-2.394 2.053-1.365 8.669 5.31 20.737 14.033 6.025 4.385 13.361 9.365 21.786 14.5a412.039 412.039 0 0 0 13.408 7.761 448.547 448.547 0 0 0 14.73 7.714 417.472 417.472 0 0 0 15.073 6.961c4.918 2.129 9.708 4.036 14.3 5.788 9.207 3.404 17.649 6.077 24.866 8.019 14.407 3.938 23.867 5.609 23.869 8.066zm211.112 443.983c-.931-1.021-.705-3.124.396-6.106.55-1.491 1.227-3.326 2.135-5.313.458-.988.888-2.123 1.4-3.262.492-1.164 1.072-2.322 1.6-3.645 2.253-5.123 4.831-11.431 7.586-18.801 2.749-7.379 5.627-15.875 8.5-25.388a626.183 626.183 0 0 0 8.564-31.414 834.728 834.728 0 0 0 8.013-36.393c2.549-12.838 4.898-26.301 7.009-40.188 2.084-13.921 3.934-28.143 5.409-42.805l1.088-10.795.859-10.565c.333-3.485.447-6.954.714-10.377l.352-5.113.239-5.07c.433-6.717.561-13.318.885-19.764.096-6.461.402-12.768.435-18.947.208-6.169.139-12.21.318-18.085l.075-8.711c.057-2.864.135-5.688.125-8.477.023-2.787.077-5.533.161-8.236l.154-7.989.279-7.727c.063-2.532.159-5.019.287-7.458.308-4.877.535-9.568.931-14.05.188-2.241.451-4.432.67-6.567.211-2.135.457-4.216.736-6.24 1.188-8.1 2.58-15.284 4.617-21.392 1.987-6.104 4.365-11.111 7.331-14.838 2.945-3.724 6.391-6.159 10.277-7.07 3.886-.91 8.025-.248 12.289 1.926 4.246 2.18 8.699 5.845 13.014 10.981 4.268 5.153 8.637 11.7 12.556 19.679a181.688 181.688 0 0 1 2.963 6.212c.97 2.154 1.858 4.413 2.772 6.738 1.81 4.655 3.605 9.614 5.131 14.929.788 2.65 1.559 5.375 2.312 8.169.735 2.8 1.366 5.694 2.023 8.644.629 2.957 1.311 5.964 1.838 9.068a471.58 471.58 0 0 1 1.515 9.501c.515 3.224.888 6.531 1.227 9.898.338 3.366.696 6.785.946 10.269.391 6.98.805 14.169.717 21.572.086 7.395-.328 14.982-.754 22.718-.655 7.727-1.336 15.616-2.532 23.58l-.851 6.002c-.309 2.005-.688 4.006-1.04 6.019-.75 4.017-1.401 8.086-2.314 12.126l-2.741 12.195-3.208 12.155c-4.411 16.106-9.752 31.634-15.485 46.194a507.368 507.368 0 0 1-18.413 41.083 508.577 508.577 0 0 1-19.62 35.541c-6.595 10.855-13.219 20.72-19.666 29.499-6.45 8.775-12.756 16.439-18.716 22.847-5.971 6.404-11.527 11.574-16.496 15.377-1.193.975-2.453 1.813-3.581 2.61-1.156.782-2.192 1.525-3.263 2.135-2.128 1.224-3.918 2.205-5.539 2.816-3.243 1.22-5.298 1.324-6.229.303z" fill="#fff"/></svg></g><g transform="translate(568.0 755.0) rotate(0.0 81.0 122.0) scale(0.420841527187142 0.4221110048144874)"><svg width="384.943" height="578.047" viewBox="0 0 384.943 578.047"><g fill="#04294F"><path d="M311 384.712c21.629 65.964 58.874 125.708 58.874 125.708l-102.831 33.717S234.229 488.457 213 423.712c-19.852-60.544-28.211-130.434-28.211-130.434L287.62 259.56s4.006 66.065 23.38 125.152z"/><path d="M73.663 384.712C52.034 450.676 14.789 510.42 14.789 510.42l102.831 33.717s32.814-55.68 54.043-120.425c19.852-60.544 28.211-130.434 28.211-130.434L97.044 259.56s-4.007 66.065-23.381 125.152z"/><path d="M21.515 500.341a1.056 1.056 0 0 0-.996.59C18.218 505.677 9.781 516.194 5 526.712c-2.038 4.483-4 8-5 10 0 1 .071 3.126 1.826 2.749 0 0 19.227-6.109 36.174-9.749 12.739-2.736 24.417-3.265 24.417-3.265.452-.097.915.106 1.15.504 0 0 7.922 10.429 13.433 19.761 7.14 12.091 11.296 29.807 11.296 29.807a1.074 1.074 0 0 0 1.684.213s12.021-11.021 18.021-20.021c5-6 9.629-12.629 9.629-12.629.234-.234.347-.564.306-.892l-4.822-38.573c-.065-.522-.5-.92-1.026-.94zm341.913 1c.421-.016.812.211.996.59 2.301 4.746 10.738 15.264 15.519 25.781 2.038 4.483 4 8 5 10 0 1-.071 3.126-1.826 2.749 0 0-19.227-6.109-36.174-9.749-12.739-2.736-24.417-3.265-24.417-3.265a1.074 1.074 0 0 0-1.15.504s-7.922 10.429-13.433 19.761c-7.14 12.091-11.296 29.807-11.296 29.807a1.074 1.074 0 0 1-1.684.213s-12.021-11.021-18.021-20.021c-5-6-9.629-12.629-9.629-12.629-.234-.234-1.356-3.043-1.314-3.371l5.83-36.094c.065-.522.5-.92 1.026-.94zm-11.035-334.608c2.607 18.978-.393 37.978-12.154 53.586a163.603 163.603 0 0 1-9.07 21.459C327 261.712 313 276.712 296.69 287.519a165.239 165.239 0 0 1-27.508 20.751 166.151 166.151 0 0 1-5.003 2.892c-13.178 16.55-35.178 20.55-55.37 18.767-1.983.294-3.978.552-5.983.774-23.825.009-50.825 7.009-71.433-7.752a163.929 163.929 0 0 1-36.464-17.741c-1.611-1.048-3.202-2.123-4.78-3.101C69 295.712 54 276.712 46.502 256.784a164.023 164.023 0 0 1-13.575-25.541C17 205.712 8 171.712 21.784 142.903a163.37 163.37 0 0 1 5.316-23.646c.586-1.927 1.177-3.824 1.638-5.653C29 86.712 46 61.712 67 46.712c33-23 65-57 108.03-43.732a168.316 168.316 0 0 1 14.87-.181C213 2.712 236 4.712 255.163 18.62a165.597 165.597 0 0 1 9.015 4.643c1.686.935 3.354 1.899 5.007 2.862C281 28.712 289 37.712 298 44.712c11 11 17 24 30 34 15 13 17 33 17.035 52.436a162.742 162.742 0 0 1 2.182 11.755 195.3 195.3 0 0 1 .788 5.98c.996 4.828 4.996 8.828 4.369 14.58.052 1.096.05 2.182.019 3.27z"/></g><path d="M94.542 307.214c.28.366.462.787.793 1.118.369.369.859.589 1.296.861.631.392 1.238.818 1.845 1.246 1.336.94 2.728 1.907 3.979 2.886 2.496 1.954 4.993 3.849 7.509 5.945 2.543 2.119 4.879 3.906 7.836 6.07 2.554 1.869 5.161 3.669 7.859 5.325 5.368 3.295 11.292 5.999 17.458 7.378 7.199 1.61 14.37 1.198 21.535-.398a113.616 113.616 0 0 0 11.466-3.202 86.353 86.353 0 0 0 3.003-1.068c1.143-.433 2.069-1.067 3.161-1.573.86-.398 1.737-.824 2.535-1.339.987-.637 1.796-1.506 2.718-2.225 1.712-1.336.185-3.99-1.671-4.034-.93-.022-1.86-.21-2.789-.174-.949.038-1.952.195-2.885.343-.321.051-.644.131-.967.171-1.258.156.408.093-.813.008-1.1-.076-2.468.476-3.546.741-3.467.854-6.882 1.91-10.35 2.761-1.563.384-3.13.756-4.71 1.068-.788.156-1.579.287-2.371.419-1.534.255.879-.067-.669.09-.558.057-1.116.116-1.676.157a37.342 37.342 0 0 1-4.707.056c-.682-.036-1.358-.108-2.039-.164-1.341-.109.935.171-.392-.044-.401-.065-.802-.127-1.202-.2-2.932-.534-5.799-1.395-8.571-2.485.044.017-1.199-.483-.595-.235.605.249-.633-.277-.589-.258a64.608 64.608 0 0 1-1.87-.868 97.919 97.919 0 0 1-4.251-2.188c-5.383-2.935-10.299-6.529-15.383-9.929-2.882-1.927-5.639-4.099-8.631-5.854-1.651-.968-3.387-1.86-5.175-2.535a28.054 28.054 0 0 0-2.499-.819c-.421-.116-.855-.256-1.284-.339-.779-.15-1.358.033-2.098.19-1.218.258-2.071 2.039-1.26 3.098zm106.171 19.34c1.45.007 3.055.338 4.491.635 1.654.342 3.324.723 4.952 1.176 3.192.887 6.272 2.145 9.378 3.286 6.413 2.358 13.058 4.527 19.986 3.683 14.279-1.741 24.47-12.804 34.379-22.153 2.61-2.462 5.335-4.885 8.047-6.798a285.416 285.416 0 0 0 4.611-3.299c1.547-1.14 2.926-2.42 4.431-3.604 1.192-.938.152-2.867-1.188-2.867-1.665-.001-3.306-.012-4.917.47-1.807.541-3.578 1.262-5.189 2.247-2.911 1.779-5.61 3.996-8.186 6.223-5.095 4.405-9.655 9.391-14.826 13.711-4.659 3.892-10.133 7.388-16.137 8.774-1.624.375-2.513.494-4.248.534a26.343 26.343 0 0 1-2.401-.058 33.865 33.865 0 0 1-1.193-.107c-.427-.045-.466-.055-1.072-.158-3.203-.548-6.331-1.476-9.426-2.448-3.484-1.094-6.963-2.182-10.567-2.818-1.937-.342-3.841-.59-5.806-.443-.97.072-1.938.196-2.897.359-.915.156-1.72.576-2.603.855-1.509.476-1.267 2.792.381 2.8z" fill="#04294f"/><circle cx="184.5" cy="167.212" fill="#ffb400" r="136.5"/><path d="M184.5 275.212c-59.551 0-108-48.449-108-108s48.449-108 108-108c59.552 0 108 48.449 108 108s-48.448 108-108 108zm0-209c-55.691 0-101 45.309-101 101s45.309 101 101 101 101-45.309 101-101-45.309-101-101-101z" fill="#04294F"/><path d="M158.952 157.153c11.246-4.389 19.674-13.909 26.103-23.854 6.047-9.356 12.025-21.355 10.117-32.748-1.181-7.051-10.589-6.647-13.925-1.82-2.577 3.729-3.614 8.066-5.423 12.162-1.982 4.486-4.134 8.911-6.69 13.1-5.147 8.438-12.223 15.542-17.19 24.045-2.52 4.315 1.764 11.161 7.008 9.115z" fill="#04294F"/><path d="M181.777 99.451c-3.34 4.685-3.3 10.206-3.569 15.74-.289 5.946-.521 11.87-.463 17.823l.334 34.558c.108 11.209.35 22.372.873 33.57.282 6.043.536 12.065 1.475 18.052.908 5.783 2.956 11.056 4.647 16.578 1.13 3.691 6.641 3.887 7.684 0 1.415-5.276 3.089-10.307 3.966-15.763.947-5.891.896-11.934.964-17.879.132-11.536-.003-23.025-.297-34.558l-.856-33.57c-.152-5.963-.552-11.871-1.037-17.816-.474-5.804-.428-11.922-4.102-16.735-2.635-3.453-7.016-3.652-9.619 0z" fill="#04294F"/><path d="M77.75 120.06c1.915-2.025 3.84-3.101 5.429-5.507 1.293-1.958 2.514-3.969 3.78-5.946 2.551-3.984 5.345-7.801 8.235-11.546 6.006-7.784 13.321-14.84 21.432-20.399 8.819-6.045 18.296-10.81 28.559-13.847 10.722-3.173 21.714-4.854 32.125-8.957 3.596-1.417 5.804-7.507 1.241-9.496-23.172-10.099-52.449 1.582-71.644 15.673-9.602 7.049-17.895 15.237-25.075 24.739-3.488 4.617-6.384 9.521-8.835 14.764-1.176 2.515-2.262 5.087-3.145 7.72-1.146 3.418-.674 5.789-.671 9.251.001 4.257 5.545 6.749 8.569 3.551zm-20.071 52.359c-3.647 8.715-2.795 18.519-1.211 27.649 1.543 8.894 5.465 17.938 13.656 22.495 2.461 1.369 6.537.298 7.058-2.871 1.35-8.219-.744-15.731-2.836-23.639-2.074-7.841-2.895-15.969-5.489-23.635-1.957-5.782-9.013-5.173-11.178.001zm215.94-10.787c-4.896 7.073-6.412 14.928-9.417 22.868-2.856 7.547-6.699 14.882-11.21 21.569-4.359 6.462-9.659 12.46-15.244 17.88-5.678 5.51-13.638 10.863-16.906 18.286-.902 2.049-.348 4.891 2.218 5.451 9.122 1.994 18.219-3.681 25.157-8.965 8.237-6.273 14.902-13.913 20.538-22.581 5.268-8.101 9.467-16.975 12.028-26.302 2.639-9.612 4.243-19.067-.485-28.206-1.43-2.762-5.13-2.237-6.679 0z" fill="#fff"/></svg></g><g transform="translate(1038.0 741.0) rotate(90.0 53.0 65.5) scale(1.9465256353753488 1.941805137630998)"><svg width="54.456" height="67.463" viewBox="0 0 54.456 67.463"><path d="M52.756 7.863c-1-5.1-5.9-8.5-11.1-7.6-1 .2-1.9.5-2.8 1 .1.2 0 .4-.1.5-.8.7-1.4 1.6-2 2.5s-.9 1.9-1.2 2.8c-.3 1-.3 1.9-.2 2.9 0 .2.1.5.1.7l.2.8c.1.6.3 1.1.4 1.7.4 2.3.7 4.6.9 6.8.2 2.3.3 4.6.2 6.9 0 1.2-.1 2.3-.1 3.5-.1 1.2-.2 2.3-.3 3.5-.3 2.3-.7 4.6-1.4 6.9-.3 1.1-.8 2.2-1.2 3.3-.2.5-.5 1.1-.8 1.6-.2.5-.5.9-.7 1.4-.7 1.9-.8 4-.1 6 .1.3-.1.6-.4.7s-.5 0-.7-.3c-1.2-2.1-1.6-4.7-1.1-7.2.1-.6.4-1.2.6-1.8.2-.5.4-1 .5-1.5.3-1 .6-2.1.8-3.1.4-2.1.7-4.3.9-6.5s.2-4.4.2-6.6c-.1-4.4-.3-8.9-.7-13.3l-.2-1.6-.1-.9v-1c0-1.3.3-2.6.9-3.8.3-.8.8-1.5 1.3-2.1-2.1-3-5.7-4.6-9.5-3.9-.9.2-1.7.4-2.4.8.1.1.2.2.2.3.1.2 0 .4-.2.5-.7.5-1.4 1-1.9 1.7-.5.6-.9 1.3-1.2 2.1s-.5 1.5-.5 2.4c-.1.7-.1 1.6 0 2.3.7 3.1 1.2 6.3 1.5 9.6.1 2 .2 4.1.2 6.2.5-.6 1.1-.9 1.7-1.1.7-.3 1.4-.4 2.1-.4 1.4 0 2.8.5 3.8 1.6.4.5.4 1.2-.1 1.6-.1.1-.3.2-.4.2h-.1c-.6.2-1.2.2-1.7.3-.5 0-1 .1-1.5.1s-1 0-1.5-.1-1.1-.1-1.6-.3l-.4-.2c-.1 0-.2-.1-.3-.2 0 .7 0 1.3-.1 2-.2 3.2-.5 6.5-1.1 9.6-.5 3.2-1.2 6.3-2.1 9.4-.1.3-.4.5-.7.4s-.4-.3-.4-.6c.1-3.2.3-6.4.4-9.5.1-3.2.3-6.3.3-9.4s-.1-6.2-.3-9.4c-.2-3.1-.5-6.2-.8-9.4v-.1c0-.6 0-1.1.1-1.6l.3-1.5c.3-1 .7-2 1.2-2.9.3-.6.8-1.1 1.2-1.5-2.1-2.3-5.3-3.4-8.6-2.8-5.1 1-8.5 5.9-7.6 11.1.9 5.1 2.5 20-1.6 28.3-2.3 4.7-.3 10.4 4.4 12.7 1.3.7 2.8 1 4.2 1 2.6 0 5.2-1.1 7-3-.4 1.2-.9 2.3-1.4 3.4-2.3 4.7-.3 10.4 4.4 12.7 1.3.7 2.8 1 4.2 1 3.5 0 6.9-2 8.5-5.3.9-1.8 1.6-3.7 2.3-5.6.7.6 1.4 1.1 2.2 1.5 1.3.7 2.8 1 4.2 1 3.5 0 6.9-2 8.5-5.3 8.3-17.6 3.9-43 3.3-45.9zm-40.6 34.6c-.5 2.5-3 4-5.4 3.5-2.5-.5-4-3-3.5-5.4s2.7-2.9 5.2-2.4c2.4.5 4.2 1.8 3.7 4.3zm-5.3-15.3c.3-.4.6-.6.9-.7s.6-.2.9-.2.6.1.9.2c.3.2.6.4.9.7.4.6.4 1.4 0 1.9-.3.4-.6.6-.9.7s-.6.2-.9.2-.6-.1-.9-.2c-.3-.2-.6-.4-.9-.7-.5-.5-.4-1.3 0-1.9zm6.6-4c-.1.1-.3.2-.5.2h-.1c-.7.2-1.3.2-1.9.2h-1.7c-.5 0-1.1 0-1.6-.1s-1.2-.1-1.7-.3l-.4-.1c-.5-.2-.8-.7-.6-1.3 0-.1.1-.3.2-.4.6-.7 1.3-1 2-1.3.7-.2 1.5-.4 2.3-.3 1.5.1 3 .6 4.1 1.7.4.6.3 1.3-.1 1.7zm12.8 33.8c-.6 2.6-3.1 4.3-5.7 3.7s-4.3-3.1-3.7-5.7 2.9-3.1 5.5-2.6 4.4 2 3.9 4.6zm13.3-34.6c0-.1.1-.2.2-.3.6-.7 1.1-1 1.8-1.3s1.4-.4 2.1-.4c1.4 0 2.8.4 3.9 1.5.4.5.4 1.1-.1 1.6-.1.1-.2.2-.4.2h-.1c-.6.2-1.2.3-1.7.3s-1 .1-1.5.1-1 0-1.5-.1-1.1-.1-1.6-.3l-.4-.1c-.6-.1-.8-.6-.7-1.2zm5.3 26.2c-.6 2.6-3.1 4.3-5.7 3.7s-4.3-3.1-3.7-5.7 2.9-3.1 5.5-2.6c2.6.6 4.5 2 3.9 4.6zm5-18c-.2.2-.5.3-.7.3h-.1c-1 0-1.9-.1-2.8-.1-.9-.1-1.8-.1-2.6-.2-.9-.1-1.7-.1-2.6-.1s-1.8 0-2.7-.1h-.2c-.5-.1-.9-.5-.9-1.1 0-.3.2-.5.4-.7.9-.8 1.9-1.2 3-1.5s2.1-.4 3.2-.3 2.2.3 3.2.6c1 .4 2 .9 2.8 1.6.3.5.3 1.2 0 1.6z" fill="#E94F27"/><g fill="#04294F"><path d="M40.956 44.063c-2.6-.6-4.9 0-5.5 2.6s1.1 5.2 3.7 5.7c2.6.6 5.2-1.1 5.7-3.7.6-2.7-1.3-4.1-3.9-4.6zm-18.7 8.3c-2.6-.6-4.9 0-5.5 2.6s1.1 5.2 3.7 5.7 5.2-1.1 5.7-3.7c.6-2.6-1.3-4-3.9-4.6zm-13.8-14.3c-2.5-.5-4.7 0-5.2 2.4-.5 2.5 1 4.9 3.5 5.4s4.9-1 5.4-3.5c.5-2.4-1.3-3.7-3.7-4.3zm38.5-10.6c-1-.4-2.1-.6-3.2-.6-1.1-.1-2.2.1-3.2.3-1.1.3-2 .7-3 1.5-.2.2-.3.4-.4.7-.1.5.3 1 .9 1.1h.2c.9.1 1.8.1 2.7.1s1.7.1 2.6.1c.9.1 1.7.1 2.6.2.9 0 1.8.1 2.8.1h.1c.3 0 .5-.1.7-.3.4-.4.3-1.1-.1-1.4-.7-.9-1.7-1.4-2.7-1.8zm-37.5-7.6c-.8 0-1.5.1-2.3.3-.7.3-1.4.6-2 1.3-.1.1-.2.2-.2.4-.2.5.1 1.1.6 1.3l.4.1c.6.2 1.2.2 1.7.3.6.1 1.1.1 1.6.1h1.7c.6 0 1.2-.1 1.9-.2h.1c.2 0 .3-.1.5-.2.4-.4.5-1.1.1-1.5-1.1-1.3-2.6-1.8-4.1-1.9zm-1.8 10c.3.1.6.2.9.2s.6-.1.9-.2.6-.3.9-.7c.4-.5.4-1.3 0-1.9-.3-.4-.6-.6-.9-.7s-.6-.2-.9-.2-.6.1-.9.2-.6.3-.9.7c-.4.5-.5 1.3 0 1.9.3.3.6.5.9.7zm32.5-6.2.4.1c.5.2 1.1.2 1.6.3.5 0 1 .1 1.5.1s1 0 1.5-.1 1.1-.1 1.7-.3h.1c.1 0 .3-.1.4-.2.5-.4.5-1.1.1-1.6-1-1.1-2.4-1.5-3.9-1.5-.7 0-1.4.1-2.1.4s-1.3.6-1.8 1.3c-.1.1-.1.2-.2.3 0 .5.2 1 .7 1.2z"/><path d="M32.556 10.163v1l.1.9.2 1.6c.4 4.4.7 8.8.7 13.3 0 2.2-.1 4.4-.2 6.6-.2 2.2-.4 4.3-.9 6.5-.2 1.1-.5 2.1-.8 3.1-.2.5-.3 1-.5 1.5-.2.6-.5 1.2-.6 1.8-.6 2.5-.2 5.1 1.1 7.2.1.2.4.3.7.3.3-.1.5-.4.4-.7-.6-2-.6-4.2.1-6 .2-.5.4-.9.7-1.4s.6-1.1.8-1.6c.5-1.1.9-2.2 1.2-3.3.7-2.3 1.1-4.6 1.4-6.9.1-1.2.3-2.3.3-3.5.1-1.2.1-2.3.1-3.5 0-2.3 0-4.6-.2-6.9s-.5-4.6-.9-6.8c-.1-.6-.2-1.1-.4-1.7l-.2-.8c0-.2-.1-.5-.1-.7-.1-.9 0-1.9.2-2.9.3-1 .6-1.9 1.2-2.8.5-.9 1.2-1.8 2-2.5.1-.1.2-.4.1-.5-.1-.2-.4-.3-.6-.2-1.2.5-2.1 1.3-2.9 2.2-.3.3-.5.6-.8 1-.5.6-.9 1.3-1.3 2.1-.6 1-.9 2.3-.9 3.6zm-15.1-5.5c-.5.9-.9 1.9-1.2 2.9l-.3 1.5c-.1.5-.1 1-.1 1.6v.1c.3 3.1.6 6.2.8 9.4.3 3.1.3 6.2.3 9.4 0 3.1-.1 6.3-.3 9.4-.2 3.2-.3 6.3-.4 9.5 0 .3.2.5.4.6.3.1.6-.1.7-.4.8-3.1 1.5-6.2 2.1-9.4.5-3.2.9-6.4 1.1-9.6 0-.7.1-1.3.1-2 .1.1.2.1.3.2l.4.2c.5.2 1.1.2 1.6.3s1 .1 1.5.1 1 0 1.5-.1 1.1-.1 1.7-.3h.1c.1 0 .3-.1.4-.2.5-.4.5-1.1.1-1.6-1-1.1-2.4-1.6-3.8-1.6-.7 0-1.4.1-2.1.4-.6.2-1.2.6-1.7 1.1 0-2.1-.1-4.1-.2-6.2-.3-3.2-.8-6.4-1.5-9.6-.1-.7-.1-1.5 0-2.3s.3-1.6.5-2.4c.3-.8.7-1.5 1.2-2.1.5-.7 1.2-1.2 1.9-1.7.2-.1.2-.3.2-.5 0-.1-.1-.2-.2-.3s-.2-.1-.4-.1c-.9.3-1.9.6-2.8 1.3-.3.2-.6.5-.9.8-.2.5-.7 1-1 1.6z"/></g></svg></g><g transform="translate(1060.0 756.0) rotate(0.0 14.5 14.0) scale(0.116 0.11470144851543554)"><svg width="250" height="244.112" viewBox="0 0 250 244.112"><path d="M250 122c0 67.379-56.006 119.593-125 122C39 247 0 189.379 0 122S45.964 0 115 0c94 0 135 54.621 135 122z" fill="#f04e23"/></svg></g><g transform="translate(1035.0 785.0) rotate(0.0 14.5 14.0) scale(0.116 0.11470144851543554)"><svg width="250" height="244.112" viewBox="0 0 250 244.112"><path d="M250 122c0 67.379-56.006 119.593-125 122C39 247 0 189.379 0 122S45.964 0 115 0c94 0 135 54.621 135 122z" fill="#f04e23"/></svg></g><g transform="translate(1048.0 817.0) rotate(0.0 14.5 14.0) scale(0.116 0.11470144851543554)"><svg width="250" height="244.112" viewBox="0 0 250 244.112"><path d="M250 122c0 67.379-56.006 119.593-125 122C39 247 0 189.379 0 122S45.964 0 115 0c94 0 135 54.621 135 122z" fill="#f04e23"/></svg></g><g transform="translate(484.0 412.0) rotate(-5.3957000214979205 97.0 54.5) translate(0.0 0.0) scale(0.485 0.48600397720685934)"><svg width="400" height="154.32" viewBox="0 0 400 154.32"><g fill="#04294f"><path d="M350 157s-110.917 3-150 3c-35.917 0-150-3-150-3a50 50 0 0 1-50-50V54A50 50 0 0 1 50 4s129.417-4 155-4c49.417 0 145 4 145 4a50 50 0 0 1 50 50v53a50 50 0 0 1-50 50z"/><path d="M38 114s38.141 62.224-16.9 101.4a4.884 4.884 0 0 0 4.136 8.684C67.55 212.492 136.669 183.192 149 114z"/></g></svg></g><g transform="translate(505.0 424.0) rotate(6.411143806149559 29.0 29.5) scale(0.8921155443442952 0.8925869894099849)"><svg width="65.014" height="66.1" viewBox="0 0 65.014 66.1"><path d="M55.121 33.947a60.4 60.4 0 0 0 5.6-6.9 71.887 71.887 0 0 0 3.9-6.8 3.662 3.662 0 0 0-3.1-5.3 66.232 66.232 0 0 0-8.7.2 54.711 54.711 0 0 0-7.9 1.1 3.761 3.761 0 0 1-4.1-1.9 44.92 44.92 0 0 0-4.8-7.4 64.113 64.113 0 0 0-5.3-5.9 3.711 3.711 0 0 0-6 1.2 59.866 59.866 0 0 0-2.5 7.5 43.579 43.579 0 0 0-1.4 8.8 3.622 3.622 0 0 1-3 3.4 75.271 75.271 0 0 0-7.7 2.2 78.5 78.5 0 0 0-8.1 3.3 3.668 3.668 0 0 0-.7 6.1 68.834 68.834 0 0 0 6.3 4.7 61.135 61.135 0 0 0 7.9 4.1 3.635 3.635 0 0 1 2.3 3.9 75.09 75.09 0 0 0-.3 8 51.806 51.806 0 0 0 .7 8.7 3.635 3.635 0 0 0 5.5 2.6 56.421 56.421 0 0 0 6.5-4.6 46.44 46.44 0 0 0 6.3-6.2 3.711 3.711 0 0 1 4.4-1 71.392 71.392 0 0 0 7.5 2.8 50.784 50.784 0 0 0 8.5 2 3.674 3.674 0 0 0 4.1-4.6 64.528 64.528 0 0 0-2.9-8.3 70.957 70.957 0 0 0-3.5-7.2 3.76 3.76 0 0 1 .5-4.5z" fill="#ffb400"/></svg></g><g transform="translate(609.0 415.0) rotate(9.026641157441462 29.0 29.5) scale(0.8921155443442952 0.8925869894099849)"><svg width="65.014" height="66.1" viewBox="0 0 65.014 66.1"><path d="M55.121 33.947a60.4 60.4 0 0 0 5.6-6.9 71.887 71.887 0 0 0 3.9-6.8 3.662 3.662 0 0 0-3.1-5.3 66.232 66.232 0 0 0-8.7.2 54.711 54.711 0 0 0-7.9 1.1 3.761 3.761 0 0 1-4.1-1.9 44.92 44.92 0 0 0-4.8-7.4 64.113 64.113 0 0 0-5.3-5.9 3.711 3.711 0 0 0-6 1.2 59.866 59.866 0 0 0-2.5 7.5 43.579 43.579 0 0 0-1.4 8.8 3.622 3.622 0 0 1-3 3.4 75.271 75.271 0 0 0-7.7 2.2 78.5 78.5 0 0 0-8.1 3.3 3.668 3.668 0 0 0-.7 6.1 68.834 68.834 0 0 0 6.3 4.7 61.135 61.135 0 0 0 7.9 4.1 3.635 3.635 0 0 1 2.3 3.9 75.09 75.09 0 0 0-.3 8 51.806 51.806 0 0 0 .7 8.7 3.635 3.635 0 0 0 5.5 2.6 56.421 56.421 0 0 0 6.5-4.6 46.44 46.44 0 0 0 6.3-6.2 3.711 3.711 0 0 1 4.4-1 71.392 71.392 0 0 0 7.5 2.8 50.784 50.784 0 0 0 8.5 2 3.674 3.674 0 0 0 4.1-4.6 64.528 64.528 0 0 0-2.9-8.3 70.957 70.957 0 0 0-3.5-7.2 3.76 3.76 0 0 1 .5-4.5z" fill="#ffb400"/></svg></g></svg>